<svg width="73" height="73" viewBox="0 0 73 73" fill="none" xmlns="http://www.w3.org/2000/svg">
<path d="M28.1516 46.1115C26.6983 46.7492 25.0955 47.1084 23.4098 47.1084C21.7241 47.1084 20.1213 46.7492 18.668 46.1115V47.8647L23.4098 53.5549L28.1516 47.8647V46.1115Z" fill="#3E84D7"/>
<path d="M21.6812 57.5961L22.9567 60.1484H23.8624L25.1379 57.5961L23.4095 56.7319L21.6812 57.5961Z" fill="#3E84D7"/>
<path d="M14.3853 49.4792L16.9897 57.2914L21.5407 55.0153L16.9269 49.4792H14.3853Z" fill="#3E84D7"/>
<path d="M32.4342 49.4792H29.8926L25.2788 55.0153L29.8298 57.2914L32.4342 49.4792Z" fill="#3E84D7"/>
<path d="M35.2646 35.2541C36.5722 35.2541 37.6356 34.1908 37.6356 32.8832C37.6356 31.5757 36.5722 30.5123 35.2646 30.5123V35.2541Z" fill="#3E84D7"/>
<path d="M12.7405 26.9556H19.8533C21.7085 26.9556 23.482 26.0689 24.5951 24.5847L26.0177 22.6868C26.4646 22.0917 27.4675 22.0917 27.9144 22.6868L29.337 24.5835C30.4501 26.0689 32.2236 26.9556 34.0788 26.9556C34.7344 26.9556 35.2643 27.4855 35.2643 28.141C35.6756 28.141 36.068 28.2098 36.4497 28.3094V25.7701C36.4497 18.5803 30.5995 12.7301 23.4097 12.7301C16.2199 12.7301 10.3696 18.5803 10.3696 25.7701V28.3094C10.7513 28.2098 11.1437 28.141 11.5551 28.141C11.5551 27.4855 12.085 26.9556 12.7405 26.9556Z" fill="#3E84D7"/>
<path d="M36.4499 49.4792H34.9325L31.6464 59.3375C31.5385 59.6623 31.2932 59.9255 30.9766 60.0571C30.8308 60.1187 30.6767 60.1484 30.5226 60.1484C30.3412 60.1484 30.1587 60.1069 29.9927 60.0239L27.2602 58.6571L25.8389 61.501L27.9383 72.0029H38.8208V64.8902H41.1917V72.0029H45.9336V58.9629C45.9336 53.7339 41.679 49.4792 36.4499 49.4792Z" fill="#3E84D7"/>
<path d="M32.8936 29.2399C30.7408 28.9258 28.7611 27.7664 27.4405 26.006L26.9663 25.3741L26.4921 26.0072C24.9332 28.0853 22.4509 29.3265 19.8536 29.3265H13.9263V35.2538C13.9263 40.4828 18.1809 44.7374 23.4099 44.7374C28.639 44.7374 32.8936 40.4828 32.8936 35.2538V29.2399Z" fill="#3E84D7"/>
<path d="M16.8271 60.0239C16.6611 60.1069 16.4786 60.1484 16.2972 60.1484C16.1431 60.1484 15.989 60.1187 15.8432 60.0583C15.5254 59.9267 15.2801 59.6635 15.1734 59.3387L11.8873 49.4792H10.3699C5.14084 49.4792 0.88623 53.7339 0.88623 58.9629V72.0029H5.62806V64.8902H7.99898V72.0029H18.8815L20.9821 61.501L19.5607 58.6571L16.8271 60.0239Z" fill="#3E84D7"/>
<path d="M23.1965 62.5192L21.2998 72.0028H25.52L23.6233 62.5192H23.1965Z" fill="#3E84D7"/>
<path d="M11.5555 35.2541V30.5123C10.2479 30.5123 9.18457 31.5757 9.18457 32.8832C9.18457 34.1908 10.2479 35.2541 11.5555 35.2541Z" fill="#3E84D7"/>
<path d="M68.4574 28.141V11.5446H63.7156V28.141H58.9738V18.6573H54.2319V28.141H49.4901V22.2137H44.7483V28.141H41.1919V30.5119H72.0138V28.141H68.4574Z" fill="#3E84D7"/>
<path d="M52.3513 7.98823H58.9733C59.2886 7.98823 59.5897 7.86376 59.8114 7.6409L62.5297 4.92264V7.98823H64.9006V2.06095C64.9006 1.40539 64.3707 0.875488 63.7151 0.875488H57.7878V3.2464H60.8534L58.4825 5.61732H51.8605C51.5452 5.61732 51.2441 5.74179 51.0224 5.96466L43.9097 13.0774L45.5859 14.7536L52.3513 7.98823Z" fill="#3E84D7"/>
<path d="M49.8372 33.2304L35.959 47.1086H36.4498C37.3341 47.1086 38.1924 47.2141 39.0222 47.3978L51.1661 35.254H72.0135V32.8831H50.6753C50.3599 32.8831 50.0588 33.0075 49.8372 33.2304Z" fill="#3E84D7"/>
</svg>
