<svg width="88" height="91" viewBox="0 0 88 91" fill="none" xmlns="http://www.w3.org/2000/svg">
<g clip-path="url(#clip0)">
<path d="M13.0368 58.4179C13.0368 59.3383 12.3072 60.0845 11.4072 60.0845C10.5073 60.0845 9.77759 59.3383 9.77759 58.4179C9.77759 57.4975 10.5073 56.7512 11.4072 56.7512C12.3072 56.7512 13.0368 57.4975 13.0368 58.4179Z" fill="#3E84D7"/>
<path d="M13.0368 45.0846C13.0368 46.005 12.3072 46.7513 11.4072 46.7513C10.5073 46.7513 9.77759 46.005 9.77759 45.0846C9.77759 44.1642 10.5073 43.418 11.4072 43.418C12.3072 43.418 13.0368 44.1642 13.0368 45.0846Z" fill="#3E84D7"/>
<path d="M45.6296 31.7514C45.6296 32.6718 44.8999 33.4181 44 33.4181C43.1 33.4181 42.3704 32.6718 42.3704 31.7514C42.3704 30.831 43.1 30.0847 44 30.0847C44.8999 30.0847 45.6296 30.831 45.6296 31.7514Z" fill="#3E84D7"/>
<path d="M13.0368 31.7514C13.0368 32.6718 12.3072 33.4181 11.4072 33.4181C10.5073 33.4181 9.77759 32.6718 9.77759 31.7514C9.77759 30.831 10.5073 30.0847 11.4072 30.0847C12.3072 30.0847 13.0368 30.831 13.0368 31.7514Z" fill="#3E84D7"/>
<path d="M29.3332 3.41813C29.3332 2.49772 28.6036 1.75146 27.7036 1.75146C26.8036 1.75146 26.074 2.49772 26.074 3.41813V8.41813H29.3332V3.41813Z" fill="#3E84D7"/>
<path d="M29.3332 58.4179C29.3332 59.3383 28.6036 60.0845 27.7036 60.0845C26.8036 60.0845 26.074 59.3383 26.074 58.4179C26.074 57.4975 26.8036 56.7512 27.7036 56.7512C28.6036 56.7512 29.3332 57.4975 29.3332 58.4179Z" fill="#3E84D7"/>
<path d="M45.6296 3.41813C45.6296 2.49772 44.8999 1.75146 44 1.75146C43.1 1.75146 42.3704 2.49772 42.3704 3.41813V8.41813H45.6296V3.41813Z" fill="#3E84D7"/>
<path d="M13.0368 3.41813C13.0368 2.49772 12.3072 1.75146 11.4072 1.75146C10.5073 1.75146 9.77759 2.49772 9.77759 3.41813V8.41813H13.0368V3.41813Z" fill="#3E84D7"/>
<path d="M71.7037 8.41789C71.7037 7.49748 70.974 6.75122 70.0741 6.75122H65.1852V10.0846C65.1852 11.005 64.4555 11.7512 63.5556 11.7512H57.037C56.1371 11.7512 55.4074 11.005 55.4074 10.0846V6.75122H48.8889V10.0846C48.8889 11.005 48.1592 11.7512 47.2593 11.7512H40.7407C39.8408 11.7512 39.1111 11.005 39.1111 10.0846V6.75122H32.5926V10.0846C32.5926 11.005 31.8629 11.7512 30.963 11.7512H24.4444C23.5445 11.7512 22.8148 11.005 22.8148 10.0846V6.75122H16.2963V10.0846C16.2963 11.005 15.5666 11.7512 14.6667 11.7512H8.14815C7.24819 11.7512 6.51852 11.005 6.51852 10.0846V6.75122H1.62963C0.729673 6.75122 0 7.49748 0 8.41789V16.7512H71.7037V8.41789Z" fill="#3E84D7"/>
<path d="M61.9258 3.41813C61.9258 2.49772 61.1961 1.75146 60.2961 1.75146C59.3962 1.75146 58.6665 2.49772 58.6665 3.41813V8.41813H61.9258V3.41813Z" fill="#3E84D7"/>
<path d="M29.3332 31.7514C29.3332 32.6718 28.6036 33.4181 27.7036 33.4181C26.8036 33.4181 26.074 32.6718 26.074 31.7514C26.074 30.831 26.8036 30.0847 27.7036 30.0847C28.6036 30.0847 29.3332 30.831 29.3332 31.7514Z" fill="#3E84D7"/>
<path d="M6.51855 80.0845V83.4178H43.9531C42.9537 82.3802 42.0338 81.2661 41.2023 80.0845H6.51855Z" fill="#3E84D7"/>
<path d="M35.8519 63.4181C35.8526 54.4264 40.0254 45.9693 47.0977 40.6283C54.1701 35.2865 63.3009 33.6956 71.7037 36.3396V20.0847H0V76.7514H39.1238C36.973 72.6515 35.8495 68.0706 35.8519 63.4181ZM44 26.7514C46.6999 26.7514 48.8889 28.9902 48.8889 31.7514C48.8889 34.5126 46.6999 36.7514 44 36.7514C41.3001 36.7514 39.1111 34.5126 39.1111 31.7514C39.1111 28.9902 41.3001 26.7514 44 26.7514ZM11.4074 63.4181C8.70754 63.4181 6.51852 61.1793 6.51852 58.4181C6.51852 55.6568 8.70754 53.4181 11.4074 53.4181C14.1073 53.4181 16.2963 55.6568 16.2963 58.4181C16.2963 61.1793 14.1073 63.4181 11.4074 63.4181ZM11.4074 50.0847C8.70754 50.0847 6.51852 47.846 6.51852 45.0847C6.51852 42.3235 8.70754 40.0847 11.4074 40.0847C14.1073 40.0847 16.2963 42.3235 16.2963 45.0847C16.2963 47.846 14.1073 50.0847 11.4074 50.0847ZM11.4074 36.7514C8.70754 36.7514 6.51852 34.5126 6.51852 31.7514C6.51852 28.9902 8.70754 26.7514 11.4074 26.7514C14.1073 26.7514 16.2963 28.9902 16.2963 31.7514C16.2963 34.5126 14.1073 36.7514 11.4074 36.7514ZM27.7037 63.4181C25.0038 63.4181 22.8148 61.1793 22.8148 58.4181C22.8148 55.6568 25.0038 53.4181 27.7037 53.4181C30.4036 53.4181 32.5926 55.6568 32.5926 58.4181C32.5926 61.1793 30.4036 63.4181 27.7037 63.4181ZM27.7037 50.0847C25.0038 50.0847 22.8148 47.846 22.8148 45.0847C22.8148 42.3235 25.0038 40.0847 27.7037 40.0847C30.4036 40.0847 32.5926 42.3235 32.5926 45.0847C32.5926 47.846 30.4036 50.0847 27.7037 50.0847ZM27.7037 36.7514C25.0038 36.7514 22.8148 34.5126 22.8148 31.7514C22.8148 28.9902 25.0038 26.7514 27.7037 26.7514C30.4036 26.7514 32.5926 28.9902 32.5926 31.7514C32.5926 34.5126 30.4036 36.7514 27.7037 36.7514Z" fill="#3E84D7"/>
<path d="M63.5555 38.418C50.0554 38.418 39.1111 49.611 39.1111 63.418C39.1111 77.2249 50.0554 88.418 63.5555 88.418C77.0557 88.418 88 77.2249 88 63.418C87.9848 49.6175 77.0493 38.4334 63.5555 38.418ZM63.5555 85.0846C51.8553 85.0846 42.3703 75.3841 42.3703 63.418C42.3703 51.4518 51.8553 41.7513 63.5555 41.7513C75.2558 41.7513 84.7407 51.4518 84.7407 63.418C84.7272 75.3784 75.2502 85.0708 63.5555 85.0846Z" fill="#3E84D7"/>
<path d="M76.5926 65.0846C76.5926 64.1641 77.3223 63.4179 78.2222 63.4179H81.4815C81.4696 53.9452 74.4084 46.0383 65.1852 45.1692V48.4179C65.1852 49.3383 64.4555 50.0846 63.5556 50.0846C62.6556 50.0846 61.9259 49.3383 61.9259 48.4179V45.1692C52.7028 46.0383 45.6416 53.9452 45.6296 63.4179H48.8889C49.7889 63.4179 50.5185 64.1641 50.5185 65.0846C50.5185 66.005 49.7889 66.7512 48.8889 66.7512H45.9408C47.4105 74.8184 53.9369 80.9081 61.9259 81.6666V78.4179C61.9259 77.4975 62.6556 76.7512 63.5556 76.7512C64.4555 76.7512 65.1852 77.4975 65.1852 78.4179V81.6666C73.1742 80.9081 79.7007 74.8184 81.1704 66.7512H78.2222C77.3223 66.7512 76.5926 66.005 76.5926 65.0846ZM74.3765 58.033L64.5987 66.3663C64.3059 66.6153 63.9367 66.7512 63.5556 66.7512C63.4768 66.752 63.3988 66.7455 63.3208 66.7325C62.8641 66.665 62.4567 66.4021 62.1997 66.0099L58.9404 61.0099C58.4407 60.2441 58.6428 59.2089 59.3916 58.6978C60.1403 58.1868 61.1525 58.3935 61.6522 59.1593L63.9057 62.6179L72.2902 55.4695C72.9824 54.8803 74.0105 54.9763 74.5866 55.6843C75.1627 56.3923 75.0688 57.4438 74.3765 58.033Z" fill="#3E84D7"/>
<path d="M29.3332 45.0846C29.3332 46.005 28.6036 46.7513 27.7036 46.7513C26.8036 46.7513 26.074 46.005 26.074 45.0846C26.074 44.1642 26.8036 43.418 27.7036 43.418C28.6036 43.418 29.3332 44.1642 29.3332 45.0846Z" fill="#3E84D7"/>
</g>
<defs>
<clipPath id="clip0">
<rect width="88" height="90" fill="white" transform="translate(0 0.0847168)"/>
</clipPath>
</defs>
</svg>
