<svg width="77" height="77" viewBox="0 0 77 77" fill="none" xmlns="http://www.w3.org/2000/svg">
<path d="M74.7943 35.9118H71.4107C72.6915 30.9705 72.5361 25.8232 70.9176 21.5557C70.7318 21.0639 70.2602 20.7388 69.7354 20.7388H67.3874C67.9525 18.5641 69.9163 16.9456 72.2655 16.9456C72.9634 16.9456 73.5299 16.3791 73.5299 15.6812C73.5299 14.9833 72.9634 14.4169 72.2655 14.4169C70.3209 14.4169 68.552 15.1579 67.208 16.364V11.8882C67.208 11.1903 66.6415 10.6238 65.9436 10.6238C65.2457 10.6238 64.6793 11.1903 64.6793 11.8882V16.3642C63.3365 15.1579 61.5663 14.417 59.6217 14.417C58.9238 14.417 58.3573 14.9835 58.3573 15.6814C58.3573 16.3793 58.9238 16.9457 59.6217 16.9457C61.971 16.9457 63.9346 18.5642 64.4998 20.7389H62.1494C61.6133 20.7389 61.1353 21.0765 60.957 21.5823C59.3803 26.0444 59.2172 31.2765 60.4488 35.9118H54.5643V32.1186C54.5643 31.4207 53.9978 30.8542 53.2999 30.8542H52.0356V29.1763C52.0356 27.3126 50.5196 25.7965 48.6558 25.7965H43.1846H37.7131C35.8494 25.7965 34.3333 27.3125 34.3333 29.1763V30.8542H33.0689C32.371 30.8542 31.8045 31.4207 31.8045 32.1186V35.9118H26.7468V32.1186C26.7468 31.4207 26.1804 30.8542 25.4825 30.8542H18.3715L9.08809 22.7317C9.83917 21.8492 10.3095 20.7213 10.3095 19.4746C10.3095 17.8625 9.5369 16.44 8.35849 15.5132L16.9931 5.79873L18.6975 7.20607C17.3989 8.91049 16.6693 10.9714 16.6341 13.155C16.5911 15.8571 17.6025 18.4137 19.4828 20.3533C19.7168 20.5934 20.0354 20.7326 20.3704 20.7376C20.3768 20.7376 20.3843 20.7376 20.3907 20.7376C20.7181 20.7376 21.0342 20.6099 21.2707 20.3811L23.1824 18.53C24.2255 19.2494 25.4558 19.6364 26.748 19.6364C30.2339 19.6364 33.0701 16.8004 33.0701 13.3143C33.0701 12.0966 32.7186 10.9271 32.0699 9.9194L33.9842 8.06458C34.4848 7.57902 34.4988 6.7774 34.012 6.27673C32.1319 4.33582 29.6094 3.24349 26.9073 3.20038C24.5404 3.13711 22.2897 3.92612 20.4639 5.38399L14.9082 0.795537C14.3695 0.351761 13.573 0.427625 13.1279 0.964898C12.6828 1.5035 12.7586 2.30008 13.2972 2.74519L15.0408 4.18528L5.89023 14.4788C5.67909 14.4523 5.46913 14.4144 5.25176 14.4144C2.46271 14.4145 0.194336 16.6827 0.194336 19.4721C0.194336 22.2614 2.46271 24.5296 5.2519 24.5296C5.84993 24.5296 6.41521 24.407 6.94744 24.2161C6.94744 24.2161 6.94744 24.2161 6.94744 24.2174L14.53 30.853H10.3096C9.61173 30.853 9.04527 31.4195 9.04527 32.1174V35.9106H1.45884C0.760947 35.9106 0.194484 36.4771 0.194484 37.175V42.2325C0.194484 42.9304 0.760947 43.4969 1.45884 43.4969H25.4825V52.3477C25.4825 53.0456 26.0489 53.612 26.7468 53.612H31.0231L20.5589 74.5417C20.3628 74.9336 20.3843 75.399 20.6144 75.772C20.8445 76.1437 21.2517 76.3713 21.6904 76.3713H26.748C27.2272 76.3713 27.6648 76.1008 27.8796 75.6721L29.4273 72.5781H46.8306L48.3782 75.6721C48.5919 76.1008 49.0306 76.3713 49.5098 76.3713H54.5674C55.0061 76.3713 55.412 76.1437 55.6434 75.772C55.8735 75.399 55.895 74.9336 55.699 74.5417L45.2347 53.612H49.511C50.2089 53.612 50.7754 53.0456 50.7754 52.3477V43.4969H74.799C75.4969 43.4969 76.0633 42.9304 76.0633 42.2325V37.175C76.0586 36.4783 75.4935 35.9118 74.7943 35.9118ZM30.1632 11.7655L30.1923 11.7376C30.4199 12.2282 30.5387 12.7643 30.5387 13.3157C30.5387 15.407 28.8368 17.1089 26.7455 17.1089C26.15 17.1089 25.5772 16.9711 25.0589 16.7106L30.1632 11.7655ZM44.4485 28.3254H48.6552C49.1255 28.3254 49.5061 28.7072 49.5061 29.1763V30.8542H44.4485V28.3254ZM37.7131 28.3254H41.9197V30.8542H36.8621V29.1763C36.8621 28.7072 37.244 28.3254 37.7131 28.3254ZM26.599 72.5796L25.9667 73.8439H23.7363L33.8516 53.6135H36.082L30.3922 64.9932L26.599 72.5796ZM33.0689 47.2914C33.0689 46.5935 33.6354 46.0271 34.3333 46.0271H41.9197C42.6176 46.0271 43.184 46.5935 43.184 47.2914C43.184 47.9893 42.6176 48.5558 41.9197 48.5558H34.3333C33.6366 48.5559 33.0689 47.9895 33.0689 47.2914ZM33.2181 64.9932L38.1265 55.1763L43.0348 64.9932H33.2181ZM52.5192 73.8439H50.2888L49.6565 72.5796L45.8633 64.9932L40.1735 53.6135H42.4039L52.5192 73.8439ZM73.5298 40.9695H49.5061H26.7468H2.72319V38.4407H10.3096H25.4825H33.0689H53.2993H62.1489H69.7354H73.5299V40.9695H73.5298Z" fill="#3E84D7"/>
</svg>
