<svg width="49" height="59" viewBox="0 0 49 59" fill="none" xmlns="http://www.w3.org/2000/svg">
<path d="M4.4472 58.5379H44.5319C45.6966 58.5421 46.814 58.0784 47.6341 57.2518C48.4542 56.4252 48.9084 55.3037 48.8954 54.1395V4.91639C48.9102 3.7481 48.4572 2.62245 47.6383 1.78932C46.8187 0.95618 45.7008 0.48484 44.5319 0.480103H36.92V5.44398C36.8975 6.04796 36.4084 6.52996 35.8044 6.54358H13.1753C12.5707 6.52996 12.0816 6.04796 12.0597 5.44398V0.480103H4.4472C3.27892 0.48484 2.16037 0.95618 1.34144 1.78932C0.521926 2.62245 0.0695331 3.7481 0.0843366 4.91639V54.1395C0.0707174 55.3037 0.524886 56.4252 1.345 57.2518C2.16511 58.0784 3.28247 58.5421 4.4472 58.5379ZM27.8248 14.4261H33.2819C33.8675 14.4261 34.343 14.901 34.343 15.4872C34.343 16.0734 33.8675 16.5483 33.2819 16.5483H27.8248C27.2386 16.5483 26.7637 16.0734 26.7637 15.4872C26.7637 14.901 27.2386 14.4261 27.8248 14.4261ZM27.8248 18.3674H37.8295C38.4151 18.3674 38.8906 18.8423 38.8906 19.4285C38.8906 20.0147 38.4151 20.4896 37.8295 20.4896H27.8248C27.2386 20.4896 26.7637 20.0147 26.7637 19.4285C26.7637 18.8423 27.2386 18.3674 27.8248 18.3674ZM27.8248 29.5848H33.2819C33.8675 29.5848 34.343 30.0597 34.343 30.6459C34.343 31.2321 33.8675 31.707 33.2819 31.707H27.8248C27.2386 31.707 26.7637 31.2321 26.7637 30.6459C26.7637 30.0597 27.2386 29.5848 27.8248 29.5848ZM27.8248 33.5261H37.8295C38.4151 33.5261 38.8906 34.001 38.8906 34.5872C38.8906 35.1734 38.4151 35.6483 37.8295 35.6483H27.8248C27.2386 35.6483 26.7637 35.1734 26.7637 34.5872C26.7637 34.001 27.2386 33.5261 27.8248 33.5261ZM27.8248 44.7435H33.2819C33.8675 44.7435 34.343 45.2184 34.343 45.8046C34.343 46.3908 33.8675 46.8657 33.2819 46.8657H27.8248C27.2386 46.8657 26.7637 46.3908 26.7637 45.8046C26.7637 45.2184 27.2386 44.7435 27.8248 44.7435ZM27.8248 48.6848H37.8295C38.4151 48.6848 38.8906 49.1597 38.8906 49.7459C38.8906 50.3321 38.4151 50.807 37.8295 50.807H27.8248C27.2386 50.807 26.7637 50.3321 26.7637 49.7459C26.7637 49.1597 27.2386 48.6848 27.8248 48.6848ZM10.0891 12.4555C10.0891 11.8693 10.564 11.3944 11.1502 11.3944H21.1549C21.7406 11.3944 22.216 11.8693 22.216 12.4555V22.4602C22.216 23.0464 21.7406 23.5213 21.1549 23.5213H11.1502C10.564 23.5213 10.0891 23.0464 10.0891 22.4602V12.4555ZM10.0891 27.6142C10.0891 27.028 10.564 26.5531 11.1502 26.5531H21.1549C21.7406 26.5531 22.216 27.028 22.216 27.6142V37.6189C22.216 38.2051 21.7406 38.68 21.1549 38.68H11.1502C10.564 38.68 10.0891 38.2051 10.0891 37.6189V27.6142ZM10.0891 42.7729C10.0891 42.1867 10.564 41.7118 11.1502 41.7118H21.1549C21.7406 41.7118 22.216 42.1867 22.216 42.7729V52.7776C22.216 53.3638 21.7406 53.8387 21.1549 53.8387H11.1502C10.564 53.8387 10.0891 53.3638 10.0891 52.7776V42.7729Z" fill="#3E84D7"/>
</svg>
