<svg width="70" height="70" viewBox="0 0 70 70" fill="none" xmlns="http://www.w3.org/2000/svg">
<g clip-path="url(#clip0)">
<path d="M6.83594 39.252C6.08131 39.252 5.46875 39.8645 5.46875 40.6191C5.46875 41.3738 6.08131 41.9863 6.83594 41.9863C7.59056 41.9863 8.20313 41.3738 8.20313 40.6191C8.20313 39.8645 7.59056 39.252 6.83594 39.252Z" fill="black"/>
<path d="M62.8384 43.9928L49.9494 48.4239C50.0066 48.1067 50.0386 47.783 50.0386 47.4546C50.0386 44.4393 47.5857 41.9858 44.5699 41.9858H35.7162C35.4813 41.9858 35.2495 41.9255 35.0449 41.8101L27.8218 37.7475C26.3937 36.9427 24.7707 36.517 23.1285 36.517H13.4364C12.8724 34.9261 11.3525 33.7832 9.57033 33.7832H1.36719C0.612031 33.7832 0 34.3952 0 35.1504V59.7593C0 60.5144 0.612031 61.1265 1.36719 61.1265H9.57033C11.3119 61.1265 12.8051 60.0322 13.3979 58.4952C14.9456 58.6874 16.7363 59.1451 17.8616 59.8202L25.0116 64.1103C27.7203 65.7359 30.8216 66.5952 33.9811 66.5952C36.4847 66.5952 38.9104 66.0697 41.1914 65.0336L66.7093 53.7976C69.5355 52.651 70.931 49.2602 69.3155 46.2716C68.1272 44.0724 65.3442 43.094 62.8384 43.9928ZM10.9375 57.0313C10.9343 57.7822 10.3218 58.3921 9.57033 58.3921H2.73438V36.5176H9.57033C10.3239 36.5176 10.9375 37.1307 10.9375 37.8848V57.0313ZM65.6705 51.2688C65.6561 51.2742 65.6417 51.2806 65.6273 51.2864C65.6273 51.2864 40.0715 62.5391 40.0667 62.5412C38.1414 63.417 36.0938 63.8608 33.9811 63.8608C31.3172 63.8608 28.7024 63.1367 26.4188 61.7657L19.2683 57.4756C17.7377 56.5576 15.5459 55.9979 13.6719 55.7736V39.252H23.1285C24.3013 39.252 25.4602 39.5553 26.4808 40.1305L33.7039 44.1931C34.3159 44.5381 35.0123 44.7207 35.7162 44.7207H44.5699C46.0775 44.7207 47.3042 45.9469 47.3042 47.4551C47.3042 48.9574 46.077 50.1895 44.5699 50.1895H30.6715C29.9164 50.1895 29.3043 50.8015 29.3043 51.5567C29.3043 52.3113 29.9164 52.9233 30.6715 52.9233H44.5699C45.4665 52.9233 46.3493 52.7006 47.1328 52.283C47.1328 52.283 63.75 46.5707 63.7565 46.5686C64.9816 46.1264 66.3669 46.5664 66.9101 47.5715C67.7245 49.0781 67.0511 50.7161 65.6705 51.2688Z" fill="black"/>
<path d="M39.8188 36.5798C40.0762 36.8025 40.395 36.9136 40.7144 36.9136C41.0337 36.9136 41.3531 36.8025 41.61 36.5798C52.7649 26.9123 59.6649 22.0198 59.6649 14.4169C59.6649 8.40234 55.4069 3.41797 49.4249 3.41797C45.4963 3.41797 42.488 5.68238 40.5504 9.08059C38.6171 5.68985 35.612 3.41797 31.6776 3.41797C27.098 3.41797 23.2694 6.38573 21.9235 10.9781C21.711 11.7028 22.1265 12.4623 22.8512 12.6748C23.5759 12.8874 24.3353 12.4719 24.5474 11.7471C25.5434 8.3484 28.3418 6.15235 31.6776 6.15235C35.5778 6.15235 38.3138 9.61572 39.2329 12.8404C39.3969 13.4326 39.9363 13.8428 40.5504 13.8428C41.1651 13.8428 41.704 13.4326 41.8679 12.8404C41.8866 12.7736 43.7857 6.15235 49.4249 6.15235C53.7038 6.15235 56.9305 9.70491 56.9305 14.4169C56.9305 20.4988 50.9854 24.8834 40.7133 33.7402C34.4547 28.3655 29.4831 24.5822 26.6574 20.8812C26.1992 20.2809 25.3415 20.1655 24.7412 20.6237C24.1409 21.082 24.0261 21.9397 24.4838 22.5405C27.6689 26.712 33.0458 30.7089 39.8188 36.5798Z" fill="black"/>
<path d="M23.1052 15.4629C22.3506 15.4629 21.738 16.0755 21.738 16.8301C21.738 17.5847 22.3506 18.1973 23.1052 18.1973C23.8599 18.1973 24.4724 17.5847 24.4724 16.8301C24.4724 16.0755 23.8599 15.4629 23.1052 15.4629Z" fill="black"/>
</g>
<defs>
<clipPath id="clip0">
<rect width="70" height="70" fill="white"/>
</clipPath>
</defs>
</svg>
