<svg width="70" height="71" viewBox="0 0 70 71" fill="none" xmlns="http://www.w3.org/2000/svg">
<path d="M66.8531 40.0421H65.6652V31.7267C65.6652 14.6692 51.8373 0.841309 34.7797 0.841309C17.7222 0.841309 3.89427 14.6692 3.89427 31.7267V40.0421H2.70637C1.39425 40.0421 0.330566 41.1057 0.330566 42.4179V51.9211C0.330566 53.2332 1.39425 54.2969 2.70637 54.2969H5.08217V55.4848C5.08217 58.109 7.20954 60.2364 9.83378 60.2364V34.1026C8.46523 34.1103 7.16647 34.7077 6.27007 35.7419V31.7267C6.27007 15.9813 19.0343 3.21711 34.7797 3.21711C50.5252 3.21711 63.2894 15.9813 63.2894 31.7267V35.7419C62.393 34.7077 61.0942 34.1103 59.7256 34.1026V60.2364C62.3499 60.2364 64.4773 58.109 64.4773 55.4848V54.2969H66.8531C68.1652 54.2969 69.2289 53.2332 69.2289 51.9211V42.4179C69.2289 41.1057 68.1652 40.0421 66.8531 40.0421Z" fill="#3E84D7"/>
<path d="M42.8821 66.176C42.38 64.7556 41.0388 63.8044 39.5323 63.8002H30.029C28.0609 63.8002 26.4653 65.3957 26.4653 67.3639C26.4653 69.3321 28.0609 70.9276 30.029 70.9276H39.5323C41.0388 70.9234 42.38 69.9722 42.8821 68.5518H53.7871C57.0674 68.5518 59.7266 65.8926 59.7266 62.6123H57.3508C57.3508 64.5805 55.7553 66.176 53.7871 66.176H42.8821Z" fill="#3E84D7"/>
<path d="M15.7742 55.4845V38.8539C15.7671 36.6929 14.3028 34.8088 12.2104 34.2686V60.0698C14.3028 59.5295 15.7671 57.6454 15.7742 55.4845Z" fill="#3E84D7"/>
<path d="M57.3503 34.2686C55.258 34.8088 53.7936 36.6929 53.7866 38.8539V55.4845C53.7936 57.6454 55.258 59.5295 57.3503 60.0698V34.2686Z" fill="#3E84D7"/>
<path d="M47.8473 16.6517C47.4063 16.1862 46.6755 16.1547 46.1961 16.5805C43.7371 18.7068 38.0114 18.7187 35.505 16.5805C35.0565 16.1865 34.3854 16.1865 33.9369 16.5805C31.4542 18.683 25.7285 18.683 23.2458 16.5805C22.7664 16.1547 22.0356 16.1862 21.5946 16.6517L19.694 18.6593C19.2744 19.0708 19.2189 19.7274 19.5633 20.2036C22.9607 24.9552 20.5255 28.7683 20.5255 36.5491C20.5255 45.4346 30.3257 52.8946 38.3441 50.1625C45.2339 47.7866 49.0352 41.9897 49.0352 36.5491C49.0352 28.7565 46.6594 24.9195 49.9974 20.2036C50.3418 19.7274 50.2863 19.0708 49.8667 18.6593L47.8473 16.6517ZM42.6918 32.2014L40.1853 34.791C39.8829 35.1076 39.7427 35.5456 39.8052 35.9789L40.3872 39.5426C40.4948 40.0762 40.2837 40.6238 39.8458 40.9472C39.4079 41.2705 38.8224 41.3111 38.3441 41.0512L35.4812 39.4595C35.0609 39.2223 34.5473 39.2223 34.127 39.4595L31.2166 41.0512C30.745 41.3157 30.1634 41.2854 29.7218 40.9733C29.2803 40.6612 29.0577 40.1229 29.1497 39.5901L29.7318 36.0264C29.7942 35.5931 29.654 35.1551 29.3516 34.8385L26.8689 32.2014C26.5045 31.8237 26.3793 31.2752 26.5438 30.7768C26.7082 30.2784 27.1353 29.9122 27.6529 29.8256L31.0028 29.3504C31.4653 29.2766 31.8612 28.9786 32.0601 28.5545L33.5093 25.4422C33.7392 24.9477 34.235 24.6315 34.7803 24.6315C35.3257 24.6315 35.8215 24.9477 36.0514 25.4422L37.5006 28.5545C37.6995 28.9786 38.0954 29.2766 38.5579 29.3504L41.9078 29.8256C42.4254 29.9122 42.8525 30.2784 43.0169 30.7768C43.1814 31.2752 43.0562 31.8237 42.6918 32.2014Z" fill="#3E84D7"/>
</svg>
