<svg width="52" height="67" viewBox="0 0 52 67" fill="none" xmlns="http://www.w3.org/2000/svg">
<path d="M49.1802 51.7078L38.1844 40.7119C37.0109 39.5384 35.5872 38.7729 34.084 38.3946V22.626C35.3041 22.626 36.2962 21.6338 36.2962 20.4139V15.9894C36.2962 14.7693 35.304 13.7772 34.084 13.7772V11.565H35.1901C35.8007 11.565 36.2962 11.0705 36.2962 10.4589V7.14051H26.3412C25.7307 7.14051 25.2351 6.64602 25.2351 6.03443C25.2351 5.42271 25.7307 4.92835 26.3412 4.92835H36.2962V3.82227C36.2963 1.99268 34.8074 0.503906 32.978 0.503906H4.21925C2.38966 0.503906 0.900879 1.99268 0.900879 3.82227V4.92835H7.53748C8.14804 4.92835 8.64356 5.42284 8.64356 6.03443C8.64356 6.64615 8.14804 7.14051 7.53748 7.14051H0.900879V10.4589C0.900879 11.0706 1.3964 11.565 2.00696 11.565H3.11304V13.7771C1.89297 13.7771 0.900879 14.7693 0.900879 15.9893V20.4137C0.900879 21.6338 1.8931 22.6259 3.11304 22.6259V28.1564H19.7046C20.3152 28.1564 20.8107 28.6509 20.8107 29.2625V49.2034H19.7046C19.2501 49.2034 18.8064 49.2488 18.3695 49.3151C18.4469 49.3041 18.5199 49.2808 18.5985 49.2709V30.3666H3.11304V34.7911H15.2802C15.8907 34.7911 16.3862 35.2856 16.3862 35.8971C16.3862 36.5089 15.8907 37.0032 15.2802 37.0032H3.11304V41.4277H15.2802C15.8907 41.4277 16.3862 41.9222 16.3862 42.5338C16.3862 43.1455 15.8907 43.6398 15.2802 43.6398H3.11304V48.0643H11.9619C12.5725 48.0643 13.068 48.5588 13.068 49.1704C13.068 49.782 12.5725 50.2764 11.9619 50.2764H3.11304V54.7009H11.5139C11.5194 54.6865 11.5283 54.6733 11.5349 54.6589C11.2396 55.3679 11.0394 56.1256 10.9376 56.9132H3.11304V62.4437C3.11304 64.8837 5.09734 66.8681 7.53748 66.8681H19.0598C19.0598 66.8681 19.0598 66.8681 19.061 66.8681C19.2745 66.8836 19.4869 66.9013 19.7047 66.9013H35.1902C36.5916 66.9013 37.9123 66.5651 39.0914 65.9833C40.3037 66.5607 41.6012 66.8605 42.8965 66.8605C45.1983 66.8605 47.478 65.9712 49.1802 64.2678C52.6434 60.8044 52.6434 55.171 49.1802 51.7078ZM36.6192 42.2761L41.3357 46.9914L38.482 49.8463C37.4634 49.436 36.3539 49.2047 35.1892 49.2047H25.6391C25.6169 49.1427 25.5893 49.0831 25.5695 49.0201C24.8737 46.851 25.3848 44.3467 26.8746 42.6257C29.3621 39.7531 33.938 39.5948 36.6192 42.2761ZM11.9619 4.92719H21.9169C22.5275 4.92719 23.023 5.42167 23.023 6.03327C23.023 6.64499 22.5275 7.13934 21.9169 7.13934H11.9619C11.3514 7.13934 10.8559 6.64486 10.8559 6.03327C10.8559 5.42167 11.3514 4.92719 11.9619 4.92719ZM5.32533 11.5639H31.8719V13.7761H5.32533V11.5639ZM4.21925 20.4127H3.11317V15.9882H4.21925H32.978H34.084L34.0852 20.4127H32.978H4.21925ZM26.3414 64.6891H19.7047C19.5201 64.6891 19.3375 64.6758 19.1516 64.6603C13.797 64.2444 11.2087 57.5004 14.819 53.5682C16.0677 52.2077 17.8575 51.4169 19.7047 51.4169H24.8802V51.4157H26.3414V64.6891ZM40.9353 61.3597C40.797 61.5975 40.6432 61.8264 40.4774 62.0466C40.4663 62.062 40.4552 62.0764 40.4431 62.092C40.1046 62.5323 39.7098 62.9316 39.2662 63.2789C39.2441 63.2965 39.2208 63.3121 39.1988 63.3287C38.9931 63.4857 38.7773 63.6317 38.5517 63.7644C37.5639 64.3484 36.4169 64.6891 35.1891 64.6891H28.5535V51.4158H35.1901C38.8502 51.4158 41.8267 54.3924 41.8267 58.0524C41.8267 58.3245 41.8057 58.5934 41.7725 58.8599C41.7647 58.9207 41.7537 58.9805 41.7449 59.0413C41.7107 59.2625 41.6675 59.4826 41.6111 59.6983C41.6 59.7403 41.59 59.7823 41.579 59.8243C41.4286 60.3608 41.214 60.8774 40.9363 61.3585L40.9353 61.3597ZM47.6162 62.7036C45.9394 64.3826 43.517 65.0065 41.2893 64.4524C41.3003 64.4414 41.3115 64.428 41.3225 64.417C41.5083 64.2378 41.6854 64.0487 41.8546 63.854C41.8746 63.8318 41.8956 63.8108 41.9144 63.7888C43.2351 62.2424 44.0381 60.2404 44.0381 58.0524C44.0381 55.1578 42.6344 52.5916 40.4798 50.9756L42.9 48.5554L47.6165 53.2719C50.2167 55.8712 50.2167 60.1031 47.6162 62.7036Z" fill="#3E84D7"/>
</svg>
