<svg width="71" height="71" viewBox="0 0 71 71" fill="none" xmlns="http://www.w3.org/2000/svg">
<path d="M67.9818 54.3741L56.7119 43.1042V30.7445V30.7036C56.7119 30.6989 56.7096 30.6954 56.7096 30.6907C56.6956 25.9867 54.8909 21.5352 51.6178 18.1523L50.8713 17.3801V12.014H52.0394C52.6841 12.014 53.2075 11.4919 53.2075 10.8459V7.34163H38.0223C37.3776 7.34163 36.8542 6.81954 36.8542 6.17357C36.8542 5.5276 37.3776 5.00551 38.0223 5.00551H53.2076V3.83732C53.2076 1.90529 51.6353 0.333008 49.7033 0.333008H7.65157C5.71954 0.333008 4.14726 1.90529 4.14726 3.83732V5.00537H16.9964C17.6412 5.00537 18.1645 5.52746 18.1645 6.17343C18.1645 6.8194 17.6412 7.34149 16.9964 7.34149H4.14726V10.8458C4.14726 11.4918 4.67058 12.0139 5.31532 12.0139H6.48337V17.3813L5.73693 18.1535C2.46505 21.5352 0.659237 25.9869 0.64637 30.692C0.64637 30.6966 0.644043 30.7002 0.644043 30.7048V30.7445V56.402V65.7468C0.64418 68.3236 2.73978 70.4192 5.31655 70.4192H36.8553H53.2088C54.6888 70.4192 56.0835 70.0641 57.3287 69.4496C58.6078 70.0593 59.9791 70.3759 61.347 70.3759C63.7779 70.3759 66.1841 69.4368 67.9831 67.6379C71.6392 63.9806 71.6392 58.0302 67.9818 54.3741ZM59.6988 49.3922L56.6851 52.4072C55.608 51.9738 54.4364 51.7297 53.2076 51.7297H43.1222C43.0988 51.6643 43.0696 51.6012 43.0485 51.5347C42.5638 50.0208 42.6151 48.3341 43.1864 46.8518C44.226 44.1499 46.8519 42.3884 49.7382 42.3884C51.5534 42.3884 53.3687 43.0635 54.719 44.4127L59.6988 49.3922ZM40.4414 50.5614H25.1731C24.5284 50.5614 24.0051 50.0393 24.0051 49.3933C24.0051 48.7474 24.5284 48.2253 25.1731 48.2253H40.446C40.418 48.4484 40.4097 48.6739 40.397 48.8993C40.3911 49.0184 40.3736 49.1364 40.3725 49.2556C40.3655 49.6912 40.3877 50.1269 40.4414 50.5614ZM25.1743 44.7199C24.5296 44.7197 24.0063 44.1977 24.0063 43.5517C24.0063 42.9057 24.5284 42.3847 25.1733 42.3847H43.5241C43.3828 42.5086 43.2391 42.6277 43.1059 42.7609C42.7812 43.0856 42.4903 43.4337 42.2216 43.7959C42.1327 43.915 42.0592 44.0412 41.9774 44.1638C41.8536 44.3484 41.7192 44.5282 41.6094 44.7199H25.1743ZM24.0051 37.7123C24.0051 37.0664 24.5284 36.5443 25.1731 36.5443H50.8713C51.5161 36.5443 52.0394 37.0664 52.0394 37.7123C52.0394 38.3583 51.5161 38.8804 50.8713 38.8804H25.1731C24.5284 38.8804 24.0051 38.3583 24.0051 37.7123ZM21.6688 5.00537H33.3498C33.9945 5.00537 34.5179 5.52746 34.5179 6.17343C34.5179 6.8194 33.9945 7.34149 33.3498 7.34149H21.6688C21.0241 7.34149 20.5007 6.8194 20.5007 6.17343C20.5007 5.52746 21.0241 5.00537 21.6688 5.00537ZM8.81976 12.014H48.5352V16.6864H8.81976V12.014ZM7.41557 19.7773L8.14559 19.0226H49.2068L49.938 19.7773C52.5173 22.4429 54.0393 25.8712 54.3173 29.5355H3.03642C3.31444 25.8724 4.83648 22.4429 7.41557 19.7773ZM7.65157 44.721C7.00683 44.721 6.48351 44.1989 6.48351 43.5529C6.48351 42.9069 7.00683 42.3849 7.65157 42.3849H12.3239V37.7125C12.3239 37.0665 12.8473 36.5444 13.492 36.5444C14.1367 36.5444 14.6601 37.0665 14.6601 37.7125V42.3847H19.3324C19.9772 42.3847 20.5005 42.9068 20.5005 43.5528C20.5005 44.1987 19.9772 44.7208 19.3324 44.7208H14.6601V49.3933C14.6601 50.0393 14.1367 50.5614 13.492 50.5614C12.8473 50.5614 12.3239 50.0393 12.3239 49.3933V44.721H7.65157ZM5.31545 68.0829C4.02707 68.0829 2.9792 67.0352 2.9792 65.7467V57.57C2.9792 57.57 28.1927 57.57 28.1974 57.57C27.889 57.57 27.5689 59.9892 27.5444 60.2683C27.4708 61.1129 27.5199 61.9644 27.6799 62.7973C28.0561 64.7399 29.042 66.5457 30.488 67.8961C30.5535 67.9569 30.613 68.0246 30.6795 68.0829H5.31545ZM43.8618 68.0829H36.853C32.989 68.0829 29.8456 64.9396 29.8456 61.0743C29.8456 57.7476 32.2823 54.8658 35.5238 54.2059C36.6323 53.9804 37.8109 54.0657 38.9382 54.0657C39.9452 54.0657 40.952 54.0657 41.9589 54.0657C42.0792 54.0657 42.1995 54.0657 42.3186 54.0657H43.8618V68.0829ZM59.2759 64.567C59.1299 64.8182 58.9675 65.0599 58.7923 65.2924C58.7807 65.3086 58.7678 65.3238 58.756 65.3403C58.3986 65.8051 57.9804 66.2269 57.5132 66.5936C57.4898 66.6124 57.4653 66.6287 57.4419 66.6462C57.2247 66.8121 56.9969 66.9662 56.7586 67.1064C55.7155 67.7232 54.5042 68.0829 53.2076 68.0829H46.199V54.0657H53.2076C57.0716 54.0657 60.2162 57.209 60.2162 61.0743C60.2162 61.3616 60.194 61.6455 60.159 61.927C60.1508 61.9912 60.1391 62.0543 60.1298 62.1185C60.0936 62.3522 60.0492 62.5846 59.9897 62.8124C59.978 62.8567 59.9675 62.9012 59.9559 62.9456C59.7969 63.5121 59.5704 64.0576 59.2772 64.5658C59.277 64.5659 59.277 64.567 59.2759 64.567ZM66.3301 65.9862C64.5581 67.7582 62.0011 68.4194 59.6474 67.833C59.6603 67.8213 59.6709 67.8073 59.6825 67.7956C59.8788 67.6064 60.0656 67.4066 60.2455 67.2011C60.2666 67.1777 60.2875 67.1555 60.3086 67.1323C61.7034 65.4992 62.5514 63.385 62.5514 61.0745C62.5514 58.0175 61.069 55.3075 58.7935 53.601L61.3494 51.0452L66.3301 56.0259C69.0751 58.7709 69.0751 63.24 66.3301 65.9862Z" fill="#3E84D7"/>
</svg>
