<svg width="71" height="71" viewBox="0 0 71 71" fill="none" xmlns="http://www.w3.org/2000/svg">
<g clip-path="url(#clip0)">
<path d="M28.1455 64.161H43.4882C41.9463 62.4539 41.0388 59.912 40.8574 56.6519H30.7763C30.5949 59.912 29.6874 62.4539 28.1455 64.161Z" fill="#3E84D7"/>
<path d="M52.0876 66.665H49.5844H22.0506H19.5475C18.8579 66.665 18.2959 67.227 18.2959 67.9166C18.2959 68.6062 18.8579 69.1682 19.5475 69.1682H52.0876C52.7772 69.1682 53.3392 68.6062 53.3392 67.9166C53.3392 67.227 52.7772 66.665 52.0876 66.665Z" fill="#3E84D7"/>
<path d="M4.52917 46.6401H0.774414V51.645C0.774414 53.0267 1.89697 54.1493 3.27866 54.1493H29.5598H42.0752H68.3563C69.738 54.1493 70.8606 53.0267 70.8606 51.645V46.6401H67.1058H4.52917ZM39.5721 51.6465H32.0629C31.3719 51.6465 30.8113 51.0859 30.8113 50.3949C30.8113 49.7039 31.3719 49.1433 32.0629 49.1433H39.5721C40.2631 49.1433 40.8237 49.7039 40.8237 50.3949C40.8237 51.0859 40.2631 51.6465 39.5721 51.6465Z" fill="#3E84D7"/>
<path d="M37.0686 34.1245C37.0686 34.8155 36.508 35.3761 35.817 35.3761C35.126 35.3761 34.5654 34.8155 34.5654 34.1245V31.1647L22.0503 25.2749V32.0995L35.8174 38.9828L49.5844 32.0995V25.2749L37.0689 31.1647C37.0686 31.1644 37.0686 34.1245 37.0686 34.1245Z" fill="#3E84D7"/>
<path d="M3.27758 5.33923C3.27758 4.6482 3.83814 4.08764 4.52917 4.08764H67.1062C67.7972 4.08764 68.3578 4.6482 68.3578 5.33923V44.1369H70.861V4.08872C70.861 2.70703 69.7384 1.58447 68.3567 1.58447H3.27866C1.89697 1.58447 0.774414 2.70703 0.774414 4.08872V44.1369H3.27758V5.33923Z" fill="#3E84D7"/>
<path d="M51.4941 21.6088H37.069V22.8604C37.069 23.5514 36.5085 24.112 35.8174 24.112C35.1264 24.112 34.5659 23.5514 34.5659 22.8604V17.854C34.5659 17.163 35.1264 16.6025 35.8174 16.6025C36.5085 16.6025 37.069 17.163 37.069 17.854V19.1056H51.4941L35.8174 11.728L17.481 20.3572L35.8171 28.9864L51.4941 21.6088Z" fill="#3E84D7"/>
<path d="M5.78027 44.1373H65.8542V6.59082H5.78027V44.1373ZM14.0077 19.2253L35.2839 9.21298C35.6219 9.0542 36.0122 9.0542 36.3502 9.21298C36.4276 9.24918 36.5054 9.28574 36.5828 9.32194C36.8007 9.42445 37.0197 9.52731 37.2373 9.62982C43.0282 12.3545 48.8191 15.0802 54.611 17.806C55.2419 18.1027 55.8737 18.4006 56.506 18.697C56.7587 18.816 57.0103 18.9346 57.2619 19.0525C57.387 19.1113 57.521 19.1626 57.6411 19.2289C58.0755 19.4665 58.3443 19.9335 58.3443 20.4253V20.7382V30.9519V31.2422L60.6371 34.6816C61.0202 35.2561 60.865 36.0346 60.2905 36.4174C60.079 36.56 59.8375 36.6278 59.597 36.6278C59.1927 36.6278 58.7959 36.4324 58.5543 36.0708L57.0924 33.878L55.6304 36.0708C55.3888 36.4324 54.9935 36.6278 54.5878 36.6278C54.3501 36.6278 54.1086 36.56 53.8942 36.4174C53.3197 36.0342 53.1645 35.2572 53.5476 34.6816L55.8404 31.2422V22.3292L52.0871 24.0961V32.8734C52.0871 33.3475 51.8194 33.7809 51.395 33.9934L36.3763 41.5026C36.2 41.59 36.0083 41.6341 35.8169 41.6341C35.6255 41.6341 35.4326 41.5904 35.2574 41.5026L20.2391 33.9934C19.8162 33.7819 19.547 33.3475 19.547 32.8734V24.0961L14.0077 21.489C13.5683 21.2826 13.2894 20.8407 13.2894 20.3565C13.2894 19.8722 13.5683 19.4317 14.0077 19.2253Z" fill="#3E84D7"/>
</g>
<defs>
<clipPath id="clip0">
<rect width="70.0862" height="70.0862" fill="white" transform="translate(0.774414 0.333008)"/>
</clipPath>
</defs>
</svg>
