<svg width="72" height="71" viewBox="0 0 72 71" fill="none" xmlns="http://www.w3.org/2000/svg">
<g clip-path="url(#clip0)">
<path d="M39.4985 34.2079C38.8538 34.2079 38.3305 33.6858 38.3305 33.0399V26.0312H33.6581V33.0399C33.6581 33.6858 33.1348 34.2079 32.49 34.2079H25.4814V38.8803H32.49C33.1348 38.8803 33.6581 39.4024 33.6581 40.0484V47.057H38.3305V40.0484C38.3305 39.4024 38.8538 38.8803 39.4985 38.8803H46.5071V34.2079H39.4985Z" fill="#3E84D7"/>
<path d="M53.5164 15.5178V14.3498C53.5164 12.8289 52.5375 11.544 51.1801 11.0604V7.34114C51.1801 3.47586 48.0368 0.33252 44.1715 0.33252H28.9862C25.1222 0.33252 21.9776 3.47586 21.9776 7.34114V11.0604C20.6202 11.544 19.6413 12.8288 19.6413 14.3498V15.5178H9.12842V52.8972C9.12842 54.1855 10.1762 55.2334 11.4647 55.2334H60.525C61.8134 55.2334 62.8613 54.1857 62.8613 52.8972V15.5178H53.5164ZM28.9861 8.5092C28.9862 7.86446 29.5106 7.34114 30.1543 7.34114H43.0035C43.6482 7.34114 44.1715 7.86446 44.1715 8.5092V11.0604C42.8141 11.544 41.8353 12.8288 41.8353 14.3498V15.5178H31.3223V14.3498C31.3223 12.8289 30.3424 11.544 28.9861 11.0604V8.5092ZM21.9775 14.3498H21.9776C21.9776 13.705 22.502 13.1817 23.1457 13.1817H27.818C28.4628 13.1817 28.9861 13.705 28.9861 14.3498V15.5178H21.9775V14.3498ZM48.844 40.048C48.844 40.6939 48.3207 41.216 47.676 41.216H40.6673V48.2247C40.6673 48.8706 40.144 49.3927 39.4993 49.3927H32.4907C31.8459 49.3927 31.3226 48.8706 31.3226 48.2247V41.216H24.314C23.6693 41.216 23.1459 40.6939 23.1459 40.048V33.0394C23.1459 32.3934 23.6693 31.8713 24.314 31.8713H31.3226V24.8627C31.3226 24.2167 31.8459 23.6946 32.4907 23.6946H39.4993C40.144 23.6946 40.6673 24.2167 40.6673 24.8627V31.8713H47.676C48.3207 31.8713 48.844 32.3934 48.844 33.0394V40.048ZM44.1715 15.5178V14.3498C44.1715 13.705 44.6959 13.1817 45.3396 13.1817H50.0121C50.6568 13.1817 51.1801 13.705 51.1801 14.3498V15.5178H44.1715Z" fill="#3E84D7"/>
<path d="M66.3655 15.5176H65.1974V52.897C65.1974 55.4739 63.1018 57.5693 60.5251 57.5693H11.4646C8.88769 57.5693 6.79222 55.4737 6.79222 52.897V15.5176H5.62416C3.04726 15.5176 0.95166 17.6132 0.95166 20.1901V65.7462C0.95166 68.3229 3.04726 70.4185 5.62403 70.4185H66.3653C68.9422 70.4185 71.0378 68.3229 71.0378 65.7462V20.1901C71.0378 17.6132 68.9411 15.5176 66.3655 15.5176Z" fill="#3E84D7"/>
</g>
<defs>
<clipPath id="clip0">
<rect width="70.0862" height="70.0862" fill="white" transform="translate(0.951172 0.333008)"/>
</clipPath>
</defs>
</svg>
