<svg width="71" height="71" viewBox="0 0 71 71" fill="none" xmlns="http://www.w3.org/2000/svg">
<path d="M51.8274 48.9917H48.5421C47.9377 48.9917 47.4473 49.4822 47.4473 50.0869C47.4473 50.6913 47.9377 51.1818 48.5421 51.1818H51.8274C52.4321 51.1818 52.9226 50.6913 52.9226 50.0869C52.9226 49.4822 52.4321 48.9917 51.8274 48.9917Z" fill="#3E84D7"/>
<path d="M56.2299 57.752H53.9925C52.7978 57.752 51.8257 58.7245 51.8257 59.9192V62.1561C51.8257 63.3508 52.7978 64.3233 53.9925 64.3233H56.2299C57.4246 64.3233 58.3971 63.3508 58.3971 62.1561V59.9192C58.3971 58.7245 57.4246 57.752 56.2299 57.752Z" fill="#3E84D7"/>
<path d="M16.807 57.752H14.57C13.3749 57.752 12.4028 58.7245 12.4028 59.9192V62.1561C12.4028 63.3508 13.3749 64.3233 14.57 64.3233H16.807C18.0017 64.3233 18.9742 63.3508 18.9742 62.1561V59.9192C18.9742 58.7245 18.0017 57.752 16.807 57.752Z" fill="#3E84D7"/>
<path d="M68.1272 49.9104C68.1248 49.8964 68.124 49.8835 68.1208 49.8691C67.5108 46.8733 64.8564 44.6103 61.6826 44.6103H59.4925V37.7201C59.4925 34.2736 56.6877 31.4695 53.2416 31.4695H44.1609V27.0878C44.1609 24.6732 42.1962 22.7085 39.7816 22.7085H6.92668C4.51204 22.7085 2.54736 24.6732 2.54736 27.0878V58.8467C2.54736 59.4511 3.03823 59.9419 3.64259 59.9419H8.11014C8.05921 60.3008 8.02311 60.665 8.02311 61.0368C8.02311 65.2641 11.4616 68.7026 15.6885 68.7026H28.8297C29.4344 68.7026 29.9245 68.2117 29.9245 67.6073C29.9245 67.003 29.4344 66.5125 28.8297 66.5125H21.0436C22.4672 65.1193 23.3539 63.1811 23.3539 61.0368C23.3539 60.665 23.3178 60.3008 23.2665 59.9419H47.534C47.4827 60.3008 47.4466 60.665 47.4466 61.0368C47.4466 63.1811 48.3345 65.1193 49.757 66.5125H41.9708C41.3661 66.5125 40.876 67.003 40.876 67.6073C40.876 68.2117 41.3661 68.7026 41.9708 68.7026H67.1579C67.7623 68.7026 68.2532 68.2117 68.2532 67.6073C68.2532 67.003 67.7623 66.5125 67.1579 66.5125H60.467C61.8907 65.1193 62.7774 63.1811 62.7774 61.0368C62.7774 60.665 62.7413 60.3008 62.6904 59.9419H67.1579C67.7623 59.9419 68.2532 59.4511 68.2532 58.8467V51.1809C68.2532 50.9607 68.2419 50.7405 68.2203 50.5204C68.1986 50.3134 68.1665 50.1109 68.1272 49.9104ZM53.2404 33.6596C54.802 33.6596 56.1435 34.5543 56.8236 35.8497H47.4466C46.8418 35.8497 46.351 36.3405 46.351 36.9449V41.3254C46.351 41.9298 46.8418 42.4202 47.4466 42.4202H57.3025V44.6103H44.1609V33.6596H53.2404ZM11.4231 49.5964L22.3742 27.6946C22.7456 26.9523 23.9623 26.9523 24.3333 27.6946L35.284 49.5964C35.454 49.9361 35.4356 50.3391 35.2358 50.6619C35.0369 50.984 34.684 51.1809 34.3038 51.1809H12.4024C12.0222 51.1809 11.6705 50.984 11.4704 50.6619C11.2719 50.3391 11.2535 49.9361 11.4231 49.5964ZM8.76824 57.7519H4.73742V55.5614H10.3323C10.3315 55.5626 10.3299 55.5646 10.3291 55.5654C10.0247 55.8638 9.74837 56.1902 9.49692 56.5359C9.47807 56.5612 9.45963 56.5852 9.44118 56.6105C9.19454 56.9578 8.97919 57.3268 8.7915 57.7122C8.78508 57.7262 8.77506 57.7374 8.76824 57.7519ZM15.6885 66.5125C13.081 66.5125 10.7706 64.5883 10.3018 62.0213C9.93686 60.0225 10.7935 57.8722 12.4209 56.659C13.8269 55.6107 15.7531 55.3007 17.417 55.8558C19.5978 56.584 21.1639 58.7328 21.1639 61.0368C21.1639 64.0562 18.7075 66.5125 15.6885 66.5125ZM21.9351 56.6105C21.9174 56.5852 21.8978 56.5612 21.8805 56.5359C21.6283 56.191 21.3524 55.865 21.048 55.5654C21.0468 55.5646 21.0456 55.5626 21.0448 55.5614H41.9708V57.7519H22.608C22.6016 57.7374 22.592 57.7262 22.5855 57.7122C22.3983 57.3256 22.1813 56.9566 21.9351 56.6105ZM55.112 66.5125C52.093 66.5125 49.6367 64.0562 49.6367 61.0368C49.6367 58.9157 50.9705 56.894 52.9075 56.0386C54.409 55.3761 56.2125 55.4399 57.6622 56.2063C59.4135 57.1319 60.5862 59.0528 60.5862 61.0368C60.5874 64.0562 58.131 66.5125 55.112 66.5125ZM62.0323 57.7519C62.0231 57.7342 62.0122 57.7186 62.0034 57.7013C60.7305 55.0866 57.979 53.3581 55.0651 53.3766C52.186 53.3942 49.4774 55.1171 48.2218 57.7013C48.213 57.7186 48.2009 57.7342 48.1933 57.7519H44.1621V46.8004H61.6838C63.298 46.8004 64.6952 47.6879 65.4555 48.9908H62.779C62.1743 48.9908 61.6838 49.4813 61.6838 50.0861V54.4662C61.6838 55.0709 62.1743 55.5614 62.779 55.5614H66.0639V57.7519H62.0323Z" fill="#3E84D7"/>
<path d="M8.02311 66.5122H3.64259C3.03823 66.5122 2.54736 67.0027 2.54736 67.607C2.54736 68.2114 3.03823 68.7023 3.64259 68.7023H8.02311C8.62748 68.7023 9.11794 68.2114 9.11794 67.607C9.11794 67.0027 8.62748 66.5122 8.02311 66.5122Z" fill="#3E84D7"/>
<path d="M37.5901 66.5122H33.21C32.6052 66.5122 32.1147 67.0027 32.1147 67.607C32.1147 68.2114 32.6052 68.7023 33.21 68.7023H37.5901C38.1949 68.7023 38.6853 68.2114 38.6853 67.607C38.6853 67.0027 38.1949 66.5122 37.5901 66.5122Z" fill="#3E84D7"/>
<path d="M6.92748 15.0429H17.8786C20.2948 15.0429 22.2591 13.0782 22.2591 10.6624C22.2591 8.09777 19.9945 6.03323 17.4306 6.30593C16.5812 4.33685 14.6154 2.99658 12.4032 2.99658C10.1911 2.99658 8.22564 4.33685 7.37424 6.30593C4.81643 6.03002 2.54736 8.09777 2.54736 10.6624C2.54736 13.0782 4.51204 15.0429 6.92748 15.0429Z" fill="#3E84D7"/>
<path d="M52.922 21.6138H63.8731C66.2886 21.6138 68.2532 19.6491 68.2532 17.2337C68.2532 14.6691 65.9898 12.6057 63.4248 12.8772C62.575 10.9081 60.6095 9.56787 58.3974 9.56787C56.1853 9.56787 54.2194 10.9081 53.3688 12.8772C50.8126 12.6025 48.5415 14.6691 48.5415 17.2337C48.5415 19.6491 50.5058 21.6138 52.922 21.6138Z" fill="#3E84D7"/>
<path d="M23.3542 30.6328L14.1753 48.9911H32.5335L23.3542 30.6328ZM24.4498 45.7058C24.4498 46.3105 23.959 46.8006 23.3542 46.8006C22.7499 46.8006 22.2594 46.3105 22.2594 45.7058V44.6105C22.2594 44.0062 22.7499 43.5157 23.3542 43.5157C23.959 43.5157 24.4498 44.0062 24.4498 44.6105V45.7058ZM23.3542 41.3256C22.7499 41.3256 22.2594 40.8348 22.2594 40.23V35.8499C22.2594 35.2451 22.7499 34.7547 23.3542 34.7547C23.959 34.7547 24.4498 35.2451 24.4498 35.8499V40.23C24.4498 40.8348 23.959 41.3256 23.3542 41.3256Z" fill="#3E84D7"/>
</svg>
