<svg width="71" height="71" viewBox="0 0 71 71" fill="none" xmlns="http://www.w3.org/2000/svg">
<g clip-path="url(#clip0)">
<path d="M63.0892 40.5564C63.0892 35.4588 59.4003 31.7116 59.2426 31.5539C59.0231 31.3343 58.7263 31.2117 58.4168 31.2117H57.3317L61.7039 24.8818C62.0788 24.3573 61.9574 23.6272 61.4317 23.2523C60.9073 22.8761 60.1772 22.9976 59.8022 23.5233L54.492 31.2106H39.7271C39.4176 31.2106 39.1197 31.3333 38.9012 31.5528C38.7435 31.7105 35.0547 35.4578 35.0547 40.5553C35.0547 47.891 40.7211 53.9161 47.9039 54.513V63.9185H46.7358C43.5154 63.9185 40.8952 66.5386 40.8952 69.7591C40.8952 70.4051 41.4186 70.9272 42.0633 70.9272H56.0805C56.7253 70.9272 57.2486 70.4051 57.2486 69.7591C57.2486 66.5387 54.6286 63.9185 51.408 63.9185H50.24V54.5141C57.4226 53.9173 63.0892 47.8922 63.0892 40.5564ZM49.0719 49.9013C43.9194 49.9013 39.7271 45.709 39.7271 40.5564C39.7271 39.9105 40.2504 39.3884 40.8951 39.3884H57.2486C57.8933 39.3884 58.4167 39.9105 58.4167 40.5564C58.4167 45.709 54.2244 49.9013 49.0719 49.9013Z" fill="#3E84D7"/>
<path d="M42.1602 41.7246C42.7185 45.035 45.6049 47.5652 49.0719 47.5652C52.5388 47.5652 55.4252 45.0351 55.9823 41.7246H42.1602Z" fill="#3E84D7"/>
<path d="M21.0375 40.556H31.5504V38.2197H17.5332V54.5732H31.5504V52.237H21.0375C20.3928 52.237 19.8695 51.7149 19.8695 51.0689C19.8695 50.4229 20.3928 49.9008 21.0375 49.9008H31.5504V47.5646H21.0375C20.3928 47.5646 19.8695 47.0425 19.8695 46.3965C19.8695 45.7506 20.3928 45.2285 21.0375 45.2285H31.5504V42.8922H21.0375C20.3928 42.8922 19.8695 42.3701 19.8695 41.7242C19.8695 41.0782 20.3926 40.556 21.0375 40.556Z" fill="#3E84D7"/>
<path d="M26.876 63.9189H31.5484V56.9103H16.3628C15.7181 56.9103 15.1947 56.3882 15.1947 55.7422V37.0525C15.1947 36.4065 15.7181 35.8844 16.3628 35.8844H31.5481V30.0438C31.5504 26.7825 29.8998 23.8389 27.3442 22.5434C26.3513 22.0399 25.71 20.9022 25.71 19.6453V14.8585C26.9984 14.8585 28.0463 13.8096 28.0463 12.5223V10.1862C28.0463 8.8978 26.9985 7.84993 25.71 7.84993H24.5419V4.16452C24.5419 2.33297 23.0514 0.841309 21.2187 0.841309H18.5193C16.6878 0.841309 15.1961 2.33187 15.1961 4.16452V7.84993H14.0281C12.7397 7.84993 11.6918 8.89766 11.6918 10.1862V12.5224C11.6918 13.8097 12.7395 14.8587 14.0281 14.8587V19.6456C14.0281 20.9025 13.3867 22.0414 12.3939 22.5437C9.83808 23.8379 8.1875 26.7828 8.1875 30.0441V63.9189H22.2047C22.8495 63.9189 23.3728 64.441 23.3728 65.0869C23.3728 65.7329 22.8495 66.255 22.2047 66.255H8.1875V67.4173C8.1875 69.3529 9.76211 70.9275 11.6965 70.9275H28.0394C29.975 70.9275 31.5484 69.3529 31.5484 67.4173V66.255H26.876C26.2313 66.255 25.708 65.7329 25.708 65.0869C25.708 64.441 26.2311 63.9189 26.876 63.9189ZM14.029 12.5223V10.1862H16.3653H23.3739H25.7101L25.7114 12.5224H24.5421H15.1972L14.029 12.5223Z" fill="#3E84D7"/>
</g>
<defs>
<clipPath id="clip0">
<rect width="70.0862" height="70.0862" fill="white" transform="translate(0.594727 0.841309)"/>
</clipPath>
</defs>
</svg>
