<svg width="71" height="71" viewBox="0 0 71 71" fill="none" xmlns="http://www.w3.org/2000/svg">
<path d="M70.7859 44.9736V33.8048C70.7859 32.375 69.6236 31.2129 68.1941 31.2129H62.6096V27.7088C62.6096 23.6662 60.0784 20.3069 56.7694 19.6552V14.8604C58.0577 14.8604 59.1055 13.8115 59.1055 12.5243V10.188C59.1055 8.89969 58.0578 7.85188 56.7694 7.85188H55.6014V4.16679C55.6014 2.33533 54.1109 0.84375 52.2783 0.84375H49.5789C47.7475 0.84375 46.2559 2.33424 46.2559 4.16679V7.85201H45.0879C43.7996 7.85201 42.7517 8.89969 42.7517 10.1881V12.5243C42.7517 13.8115 43.7994 14.8604 45.0879 14.8604V19.6552C41.7788 20.307 39.2476 23.6651 39.2476 27.7088V31.2129H32.2394V27.7088C32.2394 23.6662 29.7082 20.3081 26.3991 19.6552V14.8604C27.6874 14.8604 28.7352 13.8115 28.7352 12.5243V10.188C28.7352 8.89969 27.6875 7.85188 26.3991 7.85188H25.2311V4.16679C25.23 2.33533 23.7395 0.84375 21.9068 0.84375H19.2074C17.3759 0.84375 15.8844 2.33424 15.8844 4.16679V7.85201H14.7162C13.4279 7.85201 12.3801 8.89969 12.3801 10.1881V12.5243C12.3801 13.8115 13.4278 14.8604 14.7162 14.8604V19.6552C11.4072 20.307 8.87597 23.6662 8.87597 27.7088V31.2129H3.29153C1.86305 31.2129 0.699707 32.375 0.699707 33.8048V44.9736C0.699707 46.3157 1.72754 47.409 3.03584 47.5399V54.5996C1.72754 54.7303 0.699707 55.8236 0.699707 57.1657V68.3345C0.699707 69.7643 1.86305 70.9264 3.29153 70.9264H68.1904C69.6201 70.9264 70.7822 69.7641 70.7822 68.3345V57.1657C70.7822 55.8236 69.7544 54.7303 68.4461 54.5995V47.5399C69.7579 47.409 70.7859 46.3157 70.7859 44.9736ZM47.425 10.188H54.4332H56.7694L56.7706 12.5241H55.6014H46.257H45.089V10.188H47.425ZM41.5847 27.7087C41.5847 24.4884 43.6802 21.8684 46.2568 21.8684H55.6012C57.8578 21.8684 59.7443 23.8786 60.1788 26.5405H49.761C49.1163 26.5405 48.593 27.0626 48.593 27.7085V31.2127H41.5847V27.7087ZM60.2735 28.8768V31.2129H50.9291V28.8768H60.2735ZM17.0559 10.188H24.0642H26.4003L26.4016 12.5241H25.2323H15.8879H14.7199V10.188H17.0559ZM11.2157 27.7087C11.2157 24.4884 13.3112 21.8684 15.8878 21.8684H25.2322C27.4888 21.8684 29.3753 23.8786 29.8097 26.5405H19.3919C18.7472 26.5405 18.2239 27.0626 18.2239 27.7085V31.2127H11.2157V27.7087ZM29.9043 28.8768V31.2129H20.5599V28.8768H29.9043ZM5.3754 47.5655H8.87953V54.5737H5.3754V47.5655ZM17.0558 63.9181H7.71153C7.06682 63.9181 6.54353 63.3961 6.54353 62.7501C6.54353 62.1042 7.06682 61.5821 7.71153 61.5821H17.0559C17.7006 61.5821 18.2239 62.1042 18.2239 62.7501C18.2239 63.3959 17.7006 63.9181 17.0558 63.9181ZM18.2239 54.5737H11.2157V47.5655H18.2239V54.5737ZM15.8878 39.3892C15.8878 37.4573 17.46 35.8851 19.3919 35.8851H52.0971C54.029 35.8851 55.6012 37.4573 55.6012 39.3892C55.6012 41.3211 54.029 42.8933 52.0971 42.8933H19.3919C17.46 42.8933 15.8878 41.3211 15.8878 39.3892ZM39.2487 47.5655V54.5737H32.2404V47.5655H39.2487ZM20.5599 47.5655H29.9043V54.5737H20.5599V47.5655ZM25.2322 63.9181H22.8961C22.2513 63.9181 21.7281 63.3961 21.7281 62.7501C21.7281 62.1042 22.2513 61.5821 22.8961 61.5821H25.2322C25.8769 61.5821 26.4002 62.1042 26.4002 62.7501C26.4002 63.3959 25.8769 63.9181 25.2322 63.9181ZM40.4167 63.9181H31.0723C30.4276 63.9181 29.9043 63.3961 29.9043 62.7501C29.9043 62.1042 30.4276 61.5821 31.0723 61.5821H40.4167C41.0614 61.5821 41.5847 62.1042 41.5847 62.7501C41.5847 63.3959 41.0614 63.9181 40.4167 63.9181ZM47.425 63.9181H46.257C45.6123 63.9181 45.089 63.3961 45.089 62.7501C45.089 62.1042 45.6123 61.5821 46.257 61.5821H47.425C48.0697 61.5821 48.593 62.1042 48.593 62.7501C48.593 63.3959 48.0697 63.9181 47.425 63.9181ZM48.593 54.5737H41.5847V47.5655H48.593V54.5737ZM50.9291 47.5655H60.2735V54.5737H50.9291V47.5655ZM62.6095 63.9181H53.2651C52.6204 63.9181 52.0971 63.3961 52.0971 62.7501C52.0971 62.1042 52.6204 61.5821 53.2651 61.5821H62.6095C63.2542 61.5821 63.7775 62.1042 63.7775 62.7501C63.7776 63.3959 63.2543 63.9181 62.6095 63.9181ZM66.1136 54.5737H62.6095V47.5655H66.1136V54.5737Z" fill="#3E84D7"/>
</svg>
