<svg width="21" height="21" viewBox="0 0 21 21" fill="none" xmlns="http://www.w3.org/2000/svg">
<path fill-rule="evenodd" clip-rule="evenodd" d="M8.09369 18.6554C8.09369 19.6741 8.91955 20.5 9.93829 20.5C10.957 20.5 11.7829 19.6741 11.7829 18.6554V12.0365L18.5526 12.0365C19.5714 12.0365 20.3972 11.2106 20.3972 10.1919C20.3972 9.17314 19.5714 8.34728 18.5526 8.34728L11.7829 8.34728V2.3446C11.7829 1.32586 10.957 0.5 9.93829 0.5C8.91955 0.5 8.09369 1.32586 8.09369 2.3446V8.34728L2.24182 8.34728C1.22307 8.34728 0.397217 9.17313 0.397217 10.1919C0.397217 11.2106 1.22307 12.0365 2.24182 12.0365L8.09369 12.0365V18.6554Z" fill="#F5D061"/>
</svg>
