<svg width="35" height="35" viewBox="0 0 35 35" fill="none" xmlns="http://www.w3.org/2000/svg">
<path d="M15.1607 0.753883C7.50974 1.60739 1.29581 7.68198 0.289588 15.3142C-1.1361 26.1298 7.70612 35.3312 18.4164 34.5184C22.3563 34.2194 26.0441 32.4588 28.9336 29.764L29.1818 29.5326C29.4673 29.2664 29.4829 28.8191 29.2166 28.5337L28.2523 27.4997C27.9861 27.2142 27.5389 27.1986 27.2534 27.4648L26.7364 27.947C23.5224 30.9438 19.1101 32.2921 14.6591 31.5341C8.35053 30.4597 3.50087 25.1039 3.00826 18.7234C2.3569 10.2862 9.16269 3.23562 17.5187 3.47845C25.2234 3.70246 31.2342 10.2773 31.2342 17.9853V19.0204C31.2342 20.6724 29.8106 21.9974 28.1254 21.8336C26.6568 21.6908 25.5804 20.3707 25.5804 18.8951V12.6599C25.5804 12.2695 25.264 11.9532 24.8736 11.9532H23.4602C23.1764 11.9532 22.9354 12.1228 22.823 12.3641C21.4008 10.8129 19.3651 9.83297 17.0997 9.83297C12.813 9.83297 9.32568 13.3203 9.32568 17.607C9.32568 21.8936 12.813 25.381 17.0997 25.381C19.7999 25.381 22.1809 23.9957 23.575 21.8999C24.6246 23.654 26.5748 24.81 28.7946 24.6613C31.7962 24.4602 34.0611 21.8291 34.0611 18.8208V17.607C34.0611 7.61572 25.3771 -0.385848 15.1607 0.753883ZM17.0997 22.5541C14.3721 22.5541 12.1525 20.3345 12.1525 17.607C12.1525 14.8794 14.3721 12.6598 17.0997 12.6598C19.8272 12.6598 22.0468 14.8794 22.0468 17.607C22.0468 20.3345 19.8272 22.5541 17.0997 22.5541Z" fill="#F5D061"/>
</svg>
