<svg width="116" height="110" viewBox="0 0 116 110" fill="none" xmlns="http://www.w3.org/2000/svg">
<path fill-rule="evenodd" clip-rule="evenodd" d="M15.1696 0.0234375C11.3818 0.0234375 7.74915 1.52814 5.07077 4.20652C2.39239 6.8849 0.887695 10.5176 0.887695 14.3054L0.887695 105.66C0.887845 106.366 1.09759 107.057 1.49037 107.644C1.88316 108.231 2.44133 108.689 3.09425 108.959C3.74716 109.229 4.46547 109.299 5.15825 109.16C5.85103 109.022 6.48714 108.681 6.98608 108.18L27.3592 87.8073C28.6981 86.468 30.5142 85.7154 32.4079 85.715H100.861C104.649 85.715 108.282 84.2103 110.96 81.5319C113.638 78.8535 115.143 75.2209 115.143 71.4331V14.3054C115.143 10.5176 113.638 6.8849 110.96 4.20652C108.282 1.52814 104.649 0.0234375 100.861 0.0234375L15.1696 0.0234375Z" fill="#F5D061"/>
</svg>
