<svg width="35" height="35" viewBox="0 0 35 35" fill="none" xmlns="http://www.w3.org/2000/svg">
<path d="M29.0933 22.4244C27.2459 20.5771 25.047 19.2095 22.6478 18.3816C25.2174 16.6119 26.9055 13.6501 26.9055 10.301C26.9055 4.89403 22.5066 0.495117 17.0997 0.495117C11.6927 0.495117 7.2938 4.89403 7.2938 10.301C7.2938 13.6501 8.98193 16.6119 11.5515 18.3816C9.15241 19.2095 6.95351 20.5771 5.1061 22.4244C1.90251 25.6281 0.138184 29.8875 0.138184 34.4181H2.78841C2.78841 26.5268 9.2084 20.1068 17.0997 20.1068C24.9909 20.1068 31.4109 26.5268 31.4109 34.4181H34.0611C34.0611 29.8875 32.2968 25.6281 29.0933 22.4244ZM17.0997 17.4566C13.1541 17.4566 9.94403 14.2466 9.94403 10.301C9.94403 6.3553 13.1541 3.14535 17.0997 3.14535C21.0452 3.14535 24.2553 6.3553 24.2553 10.301C24.2553 14.2466 21.0452 17.4566 17.0997 17.4566Z" fill="#F5D061"/>
</svg>
