<svg width="35" height="35" viewBox="0 0 35 35" fill="none" xmlns="http://www.w3.org/2000/svg">
<path d="M34.0449 27.3256C34.1168 27.8763 33.949 28.3551 33.5422 28.7621L28.7659 33.5022C28.5504 33.7417 28.2692 33.9453 27.922 34.1127C27.5749 34.2804 27.2338 34.3881 26.8987 34.436C26.8748 34.436 26.8028 34.4421 26.683 34.4541C26.5635 34.466 26.4079 34.4721 26.2163 34.4721C25.7613 34.4721 25.0251 34.3943 24.0076 34.2386C22.9901 34.0829 21.7452 33.6998 20.2729 33.0894C18.8003 32.4789 17.1305 31.5631 15.2631 30.3422C13.3957 29.1214 11.4086 27.4454 9.30174 25.3145C7.62586 23.6626 6.23727 22.0825 5.13597 20.5742C4.03467 19.0659 3.14885 17.6713 2.4785 16.3904C1.80808 15.1096 1.30532 13.9484 0.970141 12.907C0.634964 11.8656 0.407522 10.9678 0.287816 10.2136C0.16811 9.45946 0.120228 8.86692 0.144169 8.43598C0.16811 8.00503 0.180081 7.76562 0.180081 7.71774C0.227963 7.38256 0.335699 7.0414 0.503287 6.69425C0.670876 6.34711 0.874376 6.0658 1.11379 5.85033L5.89006 1.07405C6.22524 0.738878 6.6083 0.571289 7.03924 0.571289C7.35047 0.571289 7.6258 0.661069 7.86521 0.840628C8.10462 1.02019 8.30812 1.24164 8.47571 1.505L12.3183 8.79509C12.5337 9.17815 12.5936 9.59712 12.4978 10.052C12.4021 10.5069 12.1986 10.8899 11.8873 11.2012L10.1277 12.9609C10.0798 13.0087 10.0379 13.0866 10.002 13.1943C9.96605 13.302 9.9481 13.3918 9.9481 13.4636C10.0439 13.9664 10.2593 14.541 10.5945 15.1874C10.8818 15.762 11.3247 16.4623 11.9232 17.2882C12.5218 18.1142 13.3717 19.0658 14.473 20.1432C15.5503 21.2446 16.508 22.1004 17.3459 22.711C18.1837 23.3212 18.8842 23.7703 19.4468 24.0576C20.0095 24.3449 20.4404 24.5185 20.7396 24.5782L21.1884 24.668C21.2363 24.668 21.3142 24.65 21.4219 24.6141C21.5296 24.5782 21.6074 24.5363 21.6553 24.4884L23.7023 22.4055C24.1334 22.0225 24.636 21.831 25.2106 21.831C25.6177 21.831 25.9408 21.9027 26.1802 22.0464H26.216L33.147 26.1404C33.6499 26.4519 33.9491 26.8468 34.0449 27.3256Z" fill="#F5D061"/>
</svg>
