<svg width="60" height="70" viewBox="0 0 60 70" fill="none" xmlns="http://www.w3.org/2000/svg">
<path d="M58.8318 64.4652C58.5207 63.992 57.8848 63.8606 57.4117 64.1717C56.9385 64.4827 56.8072 65.1186 57.1182 65.5918C57.2242 65.8336 57.9358 66.4531 57.4758 67.3061C57.2587 67.7087 56.8558 67.9492 56.3984 67.9492H42.2976C41.3221 67.9492 40.739 66.8674 41.2748 66.0525L44.6091 60.9818C44.8642 61.1094 45.2388 61.2734 45.8624 61.2734C46.5373 61.2734 46.9287 61.0802 47.1876 60.9524C47.4932 60.8014 47.7162 60.801 48.0226 60.9524C48.8987 61.3849 49.7962 61.3852 50.673 60.9524C50.9786 60.8014 51.2016 60.801 51.5081 60.9524C51.767 61.0802 52.1583 61.2734 52.8333 61.2734C53.4574 61.2734 53.8322 61.1093 54.0871 60.982L54.4787 61.5776C54.6757 61.8771 55.0027 62.0397 55.3363 62.0397C55.5297 62.0397 55.7252 61.9851 55.8988 61.871C56.372 61.5598 56.5034 60.9241 56.1922 60.4509L53.3219 56.086C53.232 55.9491 53.1844 55.7903 53.1844 55.6266V53.967C53.93 53.7022 54.4665 52.9914 54.4665 52.156V50.4078C54.4665 49.3473 53.6037 48.4846 52.5432 48.4846H47.6303C46.7589 47.5807 45.7353 46.8625 44.5797 46.3479C43.2776 45.7682 41.3772 45.2244 38.9259 44.7297C38.6908 44.3351 38.3709 43.9835 37.9703 43.7061L32.6525 40.0244V38.8484C33.8272 38.0044 34.7652 37.0923 35.5775 35.8814C35.6762 35.8492 35.7735 35.8129 35.868 35.7681C38.9561 34.3046 37.711 34.7724 42.4157 33.1588C43.6528 32.7285 44.3459 31.4459 44.0283 30.1752L43.5121 28.1099C43.96 27.7981 44.8418 27.2006 46.5766 26.0585C48.1973 24.9915 47.9903 22.5471 46.2128 21.7674L43.4955 20.5756C43.2371 20.4624 43.1736 20.1261 43.3733 19.9263L45.8463 17.4535C47.2267 16.0728 46.5133 13.7067 44.6005 13.3186L40.7897 12.5453C40.5815 12.5031 40.4426 12.3054 40.4734 12.0952L41.0834 7.93529C41.3429 6.16697 39.6816 4.72486 37.9688 5.22785L34.4863 6.24913C34.243 6.32023 33.9971 6.15152 33.9751 5.90023L33.6529 2.23958C33.485 0.332767 31.2963 -0.654342 29.7557 0.482884L25.5876 3.56001C25.4454 3.66488 25.2544 3.66501 25.1123 3.56001L20.9443 0.482747C19.405 -0.653932 17.2153 0.331673 17.0473 2.23945L16.7251 5.90023C16.7107 6.06429 16.6105 6.15576 16.5521 6.19554C16.4937 6.23533 16.3723 6.29507 16.2139 6.249L12.7315 5.22771C11.0162 4.72445 9.35783 6.16833 9.61691 7.93515L10.227 12.0951C10.2579 12.3054 10.1188 12.5031 9.91072 12.5453L6.09996 13.3186C4.18672 13.7067 3.47387 16.0731 4.85432 17.4535L7.32715 19.9263C7.52703 20.1262 7.46318 20.4624 7.20492 20.5758L4.48764 21.7675C2.7107 22.547 2.50262 24.9914 4.12383 26.0586C5.85879 27.2009 6.74049 27.7982 7.18838 28.1101L6.67185 30.1752C6.35426 31.4457 7.04742 32.7284 8.28459 33.1588C12.7937 34.7283 11.7709 34.2829 14.8319 35.7679C14.9265 35.8128 15.024 35.8492 15.1227 35.8814C15.935 37.0922 16.873 38.0044 18.0478 38.8484V39.9973L12.6947 43.7064C12.2914 43.9857 11.9698 44.3402 11.7344 44.7381C9.30246 45.2305 7.41533 45.7715 6.12047 46.3481C2.60105 47.915 0.327148 51.4169 0.327148 55.2694V65.9728C0.327148 68.1934 2.13375 70 4.35434 70H56.3985C57.6042 70 58.7088 69.3407 59.2809 68.2795C60.3602 66.278 58.8753 64.5821 58.8318 64.4652ZM52.4156 59.1136C51.5395 58.681 50.642 58.6808 49.7652 59.1136C49.4596 59.2646 49.2366 59.265 48.9302 59.1136C48.0569 58.6827 47.1601 58.6793 46.2798 59.1136C46.1045 59.2002 46.0358 59.2378 45.7677 59.2199L47.0874 57.2128C47.398 56.7406 47.5622 56.1919 47.5622 55.6266V54.0792H51.1335V55.6266C51.1335 56.1918 51.2977 56.7403 51.6083 57.2127L52.9282 59.2199C52.6506 59.2383 52.5742 59.192 52.4156 59.1136ZM52.4158 52.0286H46.2804V50.5353H52.4158V52.0286ZM44.9609 48.9013C44.5161 49.2539 44.2296 49.7975 44.2296 50.4078V52.156C44.2296 52.9914 44.7659 53.7022 45.5116 53.967V55.6266C45.5116 55.7904 45.464 55.9491 45.3741 56.086L43.2973 59.2442C43.2969 59.2447 43.2966 59.2453 43.2962 59.2458L39.5612 64.9258C38.966 65.8309 38.8621 66.9596 39.2618 67.9492H33.2281V64.8918C33.3477 64.6651 36.9231 57.8534 37.145 57.6041L38.4951 56.0883C39.8081 54.6141 39.9437 52.4482 38.8251 50.8216C38.3082 50.07 38.3067 49.0588 38.8213 48.3055C39.1147 47.8762 39.2924 47.4008 39.3624 46.9168C41.2546 47.3298 42.726 47.7673 43.7459 48.2215C44.1748 48.4125 44.5794 48.641 44.9609 48.9013ZM36.8032 45.3924C37.374 45.7875 37.5197 46.5754 37.128 47.1485C36.139 48.596 36.142 50.5392 37.1354 51.9836C37.7175 52.8302 37.647 53.9571 36.9637 54.7244L35.6136 56.2403C35.2004 56.7045 35.302 56.5771 33.2232 60.5306L33.2053 46.0101C33.2032 45.0805 32.9979 44.1603 32.6967 43.3121C32.6674 43.2298 32.6527 43.1431 32.6527 43.0544V42.5187L36.8032 45.3924ZM30.6626 43.6264C27.3545 45.5973 23.358 45.6025 20.0427 43.6295C20.0771 43.4718 20.0986 43.2918 20.0986 43.0545V40.5223C20.0986 40.5218 20.0986 40.5214 20.0986 40.5208V40.0565C21.7229 40.8208 23.4747 41.2193 25.3387 41.2401H25.3501C25.3501 41.2401 25.3578 41.2401 25.3614 41.2401C27.2255 41.2193 28.9772 40.8208 30.6017 40.0565V43.0544C30.6019 43.2478 30.6237 43.4388 30.6626 43.6264ZM8.95834 31.2219C8.73057 31.1426 8.60287 30.9065 8.66139 30.6726L9.34129 27.9531C9.51629 27.2532 8.99471 26.8794 8.61394 26.6064C7.8557 26.0628 6.0331 24.8604 5.25135 24.3458C4.98529 24.1706 5.01947 23.7735 5.31123 23.6455L8.02838 22.4537C9.60474 21.7623 9.99781 19.6969 8.77691 18.4762L6.30408 16.0033C6.07822 15.7773 6.19252 15.3922 6.50738 15.3282L10.3181 14.5549C11.5933 14.2961 12.4445 13.0849 12.2557 11.7975L11.6457 7.63751C11.6032 7.34794 11.8733 7.11333 12.1541 7.1955L15.6366 8.21679C16.3442 8.42433 17.099 8.30484 17.7079 7.88935C18.3169 7.47386 18.7031 6.81433 18.7676 6.08001L19.0899 2.41937C19.1175 2.10601 19.4745 1.94701 19.726 2.13253L23.8945 5.2098C24.7651 5.85238 25.935 5.85251 26.8056 5.2098L30.9739 2.13253C31.2268 1.94618 31.5826 2.10724 31.6102 2.41937L31.9324 6.08001C32.0682 7.62193 33.5807 8.65197 35.0636 8.21693L38.546 7.19564C38.827 7.11347 39.0969 7.34808 39.0545 7.63765L38.4445 11.7977C38.2557 13.0852 39.1067 14.2964 40.382 14.5551L44.1928 15.3284C44.5041 15.3915 44.6243 15.7753 44.3961 16.0035L41.9233 18.4763C40.7063 19.6931 41.0907 21.7602 42.6718 22.4537L45.3891 23.6455C45.6807 23.7733 45.715 24.1705 45.449 24.3458C44.6659 24.8613 42.8459 26.062 42.0864 26.6064C41.7058 26.8792 41.1846 27.2528 41.359 27.9531L42.0389 30.6726C42.0975 30.9065 41.9698 31.1427 41.742 31.2219C37.3895 32.7413 37.8593 32.5351 36.9665 32.9775C37.1999 32.2334 37.3634 31.4582 37.4471 30.659C39.0313 30.5558 40.2885 29.234 40.2885 27.6243V25.3904C40.2885 23.803 39.0663 22.4958 37.5133 22.3608V20.3513C37.5133 13.4018 31.7502 8.58702 25.3613 8.51552C25.3535 8.51538 25.3461 8.51538 25.3383 8.51552C18.9682 8.58675 13.1864 13.385 13.1864 20.3513V22.3608C11.6337 22.496 10.4112 23.8031 10.4112 25.3904V27.6243C10.4112 29.234 11.6685 30.5557 13.2527 30.659C13.3365 31.4582 13.5 32.2334 13.7334 32.9775C12.7642 32.5079 13.4613 32.7939 8.95834 31.2219ZM15.2376 22.9873C15.2376 21.7273 16.2627 20.7022 17.5227 20.7022H33.1808C34.4408 20.7022 35.4659 21.7273 35.4659 22.9873V23.6054C35.4659 24.8654 34.4408 25.8906 33.1808 25.8906H29.1756C28.314 25.8906 28.1537 25.021 27.5811 24.2766C26.5404 22.6465 24.1612 22.6495 23.1224 24.2766C22.5491 25.0218 22.3895 25.8906 21.5279 25.8906H17.5228C16.2627 25.8906 15.2377 24.8654 15.2377 23.6054V22.9873H15.2376ZM15.297 19.268C15.8736 13.9606 20.5194 10.6252 25.3501 10.5664C30.1705 10.6251 34.8235 13.9408 35.4029 19.2661C34.7525 18.8763 33.9925 18.6516 33.1807 18.6516H17.5227C16.7095 18.6514 15.9481 18.8769 15.297 19.268ZM15.2768 30.2822C15.1926 29.3316 14.4085 28.6148 13.4528 28.6148C12.9066 28.6148 12.4624 28.1705 12.4624 27.6244V25.3906C12.4624 24.9089 12.8082 24.507 13.2644 24.4186C13.6462 26.422 15.41 27.9413 17.5228 27.9413H21.5279C23.7817 27.9413 24.4036 25.8858 24.8509 25.3803C25.0843 25.0149 25.6187 25.0138 25.8528 25.3803C26.2937 25.8787 26.9195 27.9413 29.1759 27.9413H33.1811C35.2938 27.9413 37.0573 26.4221 37.4393 24.4191C37.8942 24.5085 38.2384 24.9099 38.2384 25.3906V27.6244C38.2384 28.1706 37.7941 28.6148 37.248 28.6148C36.2924 28.6148 35.5082 29.3316 35.4241 30.2822C34.9443 35.6982 30.2605 39.1296 25.3506 39.1892C20.4619 39.13 15.7596 35.7303 15.2768 30.2822ZM13.8624 45.3921L18.0478 42.4922V43.0544C18.0478 43.4223 17.4633 44.4035 17.4601 46.0109L17.4549 50.209C17.4542 50.7753 17.9127 51.2349 18.479 51.2356H18.4803C19.046 51.2356 19.5048 50.7773 19.5056 50.2115L19.5108 46.0143C19.5111 45.906 19.5164 45.7987 19.5245 45.6913C23.0222 47.5584 27.2961 47.7474 31.1426 45.7085C31.1494 45.8112 31.1542 45.913 31.1545 46.0135L31.1775 64.6375V67.9492H19.4877V64.6375L19.4996 55.0308C19.5003 54.4645 19.0418 54.0049 18.4755 54.0042C18.4751 54.0042 18.4746 54.0042 18.4742 54.0042C17.9085 54.0042 17.4497 54.4625 17.4488 55.0283L17.442 60.5306C15.3823 56.6133 15.4678 56.7075 15.0516 56.2403L13.7017 54.7244C13.0183 53.9573 12.9477 52.8302 13.5299 51.9836C14.5233 50.5392 14.5263 48.596 13.5373 47.1485C13.1456 46.5754 13.2915 45.7875 13.8624 45.3921ZM2.37779 65.9728V55.2694C2.37779 52.2259 4.17428 49.4594 6.95473 48.2215C7.96836 47.7702 9.4281 47.3352 11.304 46.9243C11.3747 47.4058 11.5523 47.8785 11.8441 48.3056C12.3588 49.0589 12.3572 50.0701 11.8402 50.8218C10.7216 52.4484 10.8574 54.6143 12.1703 56.0885L13.5204 57.6044C13.7423 57.8535 17.3002 64.6323 17.4371 64.8919V67.9492H4.35434C3.26441 67.9492 2.37779 67.0626 2.37779 65.9728Z" fill="black"/>
</svg>
