<svg width="44" height="63" viewBox="0 0 44 63" fill="none" xmlns="http://www.w3.org/2000/svg">
<path d="M0.922363 4.16477V53.4069H34.8447C35.1349 53.4069 35.4132 53.5222 35.6185 53.7274C35.8237 53.9326 35.939 54.2109 35.939 54.5011V58.8782C35.939 59.7489 36.2848 60.5839 36.9005 61.1995C37.5161 61.8152 38.3511 62.161 39.2218 62.161C40.0924 62.161 40.9274 61.8152 41.5431 61.1995C42.1587 60.5839 42.5046 59.7489 42.5046 58.8782V4.16477C42.5033 2.98024 42.8886 1.82766 43.6018 0.881958H4.20517C3.33481 0.882936 2.50039 1.22912 1.88495 1.84455C1.26952 2.45998 0.923341 3.29441 0.922363 4.16477ZM16.6525 45.747C16.3819 45.747 16.1175 45.6668 15.8925 45.5165C15.6676 45.3662 15.4923 45.1525 15.3888 44.9026C15.2852 44.6527 15.2581 44.3776 15.3109 44.1123C15.3637 43.847 15.494 43.6032 15.6853 43.4119C15.8766 43.2207 16.1203 43.0904 16.3856 43.0376C16.651 42.9848 16.926 43.0119 17.1759 43.1154C17.4259 43.219 17.6395 43.3943 17.7898 43.6192C17.9401 43.8442 18.0203 44.1086 18.0203 44.3792C18.0203 44.7419 17.8762 45.0898 17.6197 45.3464C17.3632 45.6029 17.0152 45.747 16.6525 45.747ZM21.3031 45.747C21.0326 45.747 20.7681 45.6668 20.5432 45.5165C20.3182 45.3662 20.1429 45.1525 20.0394 44.9026C19.9359 44.6527 19.9088 44.3776 19.9616 44.1123C20.0143 43.847 20.1446 43.6032 20.3359 43.4119C20.5272 43.2207 20.7709 43.0904 21.0363 43.0376C21.3016 42.9848 21.5766 43.0119 21.8266 43.1154C22.0765 43.219 22.2901 43.3943 22.4404 43.6192C22.5907 43.8442 22.671 44.1086 22.671 44.3792C22.671 44.7419 22.5268 45.0898 22.2703 45.3464C22.0138 45.6029 21.6659 45.747 21.3031 45.747ZM25.9538 45.747C25.6832 45.747 25.4188 45.6668 25.1938 45.5165C24.9689 45.3662 24.7936 45.1525 24.69 44.9026C24.5865 44.6527 24.5594 44.3776 24.6122 44.1123C24.665 43.847 24.7953 43.6032 24.9865 43.4119C25.1778 43.2207 25.4216 43.0904 25.6869 43.0376C25.9522 42.9848 26.2273 43.0119 26.4772 43.1154C26.7271 43.219 26.9408 43.3943 27.0911 43.6192C27.2414 43.8442 27.3216 44.1086 27.3216 44.3792C27.3216 44.7419 27.1775 45.0898 26.921 45.3464C26.6644 45.6029 26.3165 45.747 25.9538 45.747ZM8.90273 32.9362L11.2791 30.56C12.9946 28.8527 13.986 26.5498 14.047 24.1303C13.6688 23.9296 13.3418 23.6446 13.0913 23.2974C12.7976 22.8989 12.6167 22.4286 12.5676 21.936C12.5185 21.4434 12.6032 20.9467 12.8125 20.4981C12.8747 20.3614 12.8835 20.2063 12.8373 20.0634C12.7911 19.9205 12.6932 19.8 12.5628 19.7255L12.555 19.721C12.1258 19.478 11.7687 19.1254 11.5203 18.6992C11.272 18.2731 11.1412 17.7886 11.1413 17.2953C11.1414 16.8021 11.2724 16.3177 11.521 15.8916C11.7695 15.4656 12.1267 15.1131 12.5561 14.8703L12.5628 14.8664C12.693 14.7923 12.7909 14.6721 12.8373 14.5296C12.8836 14.387 12.8751 14.2323 12.8134 14.0957C12.607 13.6462 12.5239 13.15 12.5726 12.6579C12.6214 12.1657 12.8002 11.6954 13.0908 11.2952C13.3813 10.895 13.7731 10.5794 14.226 10.3806C14.6788 10.1818 15.1764 10.1072 15.6676 10.1642C15.8168 10.1809 15.9668 10.1414 16.0884 10.0533C16.21 9.96532 16.2944 9.83514 16.3252 9.68823L16.328 9.67455C16.4274 9.1913 16.6532 8.74308 16.9825 8.37569C17.3118 8.0083 17.7327 7.73491 18.2023 7.58344C18.6718 7.43198 19.1731 7.40787 19.655 7.51358C20.1369 7.61928 20.5821 7.85102 20.9452 8.18511C21.0559 8.28661 21.2006 8.34302 21.3508 8.34328C21.501 8.34353 21.6459 8.2876 21.757 8.18648L21.7619 8.18196L21.7633 8.1806C22.1271 7.84741 22.5728 7.61677 23.0549 7.51221C23.537 7.40766 24.0383 7.43295 24.5074 7.58549C24.9766 7.73804 25.3968 8.01237 25.7253 8.38048C26.0537 8.74858 26.2785 9.19727 26.3768 9.6807L26.3783 9.68809C26.4087 9.83485 26.4927 9.96501 26.614 10.0531C26.7352 10.1412 26.885 10.1809 27.0339 10.1644C27.5251 10.107 28.0227 10.1813 28.4757 10.3798C28.9286 10.5782 29.3206 10.8936 29.6114 11.2936C29.9022 11.6936 30.0814 12.1638 30.1305 12.6558C30.1796 13.1479 30.0968 13.6442 29.8908 14.0938C29.8286 14.2305 29.8198 14.3855 29.866 14.5284C29.9122 14.6713 30.0101 14.7918 30.1406 14.8663L30.1484 14.8708C30.5776 15.1139 30.9346 15.4665 31.183 15.8926C31.4314 16.3188 31.5622 16.8033 31.5621 17.2965C31.562 17.7898 31.4309 18.2742 31.1824 18.7002C30.9338 19.1263 30.5766 19.4787 30.1473 19.7216L30.1406 19.7254C30.0103 19.7996 29.9124 19.9197 29.8661 20.0623C29.8197 20.2049 29.8283 20.3596 29.89 20.4962C30.0998 20.9449 30.1847 21.4419 30.1357 21.9349C30.0868 22.4278 29.9059 22.8985 29.612 23.2972C29.5305 23.4091 29.4411 23.5148 29.3443 23.6138C29.3634 23.695 29.3731 23.7782 29.3733 23.8616C29.37 25.1061 29.6134 26.3389 30.0897 27.4887C30.5659 28.6385 31.2655 29.6824 32.1479 30.56L34.5242 32.9362C34.6881 33.1002 34.7958 33.312 34.8316 33.541C34.8674 33.7701 34.8295 34.0046 34.7234 34.2107C34.6173 34.4169 34.4485 34.584 34.2413 34.688C34.0341 34.792 33.7992 34.8275 33.5705 34.7894L28.05 33.8694L27.1636 38.3012C27.1199 38.5197 27.0105 38.7197 26.8501 38.8744C26.6897 39.0291 26.4858 39.1311 26.2658 39.1668C26.0459 39.2025 25.8202 39.1701 25.6191 39.0741C25.418 38.9781 25.251 38.823 25.1404 38.6295L22.1556 33.4061C21.9956 33.1262 21.8492 32.8397 21.7135 32.5485C21.5778 32.8397 21.4313 33.1262 21.2714 33.4061L18.2865 38.6295C18.1759 38.823 18.0089 38.9781 17.8078 39.0741C17.6067 39.1701 17.3811 39.2025 17.1611 39.1668C16.9411 39.1311 16.7373 39.0291 16.5768 38.8744C16.4164 38.7197 16.307 38.5197 16.2633 38.3012L15.377 33.8694L9.85638 34.7894C9.6277 34.8275 9.39282 34.792 9.18561 34.688C8.97841 34.584 8.80959 34.4169 8.7035 34.2107C8.59742 34.0046 8.55955 33.7701 8.59535 33.541C8.63116 33.312 8.73879 33.1002 8.90273 32.9362Z" fill="#F5D061"/>
</svg>
