<svg width="9" height="16" viewBox="0 0 9 16" fill="none" xmlns="http://www.w3.org/2000/svg">
<path d="M4.739 6.79139C2.845 6.29912 2.23592 5.79016 2.23592 4.99752C2.23592 4.08807 3.07862 3.45395 4.48869 3.45395C5.67348 3.45395 6.26588 3.90451 6.48281 4.62206C6.58294 4.9558 6.85827 5.20611 7.20871 5.20611H7.45901C8.00969 5.20611 8.40184 4.66377 8.20994 4.14647C7.85951 3.16193 7.04183 2.34425 5.74023 2.0272V1.45149C5.74023 0.758972 5.18121 0.199951 4.48869 0.199951C3.79617 0.199951 3.23715 0.758972 3.23715 1.45149V2.00217C1.6185 2.3526 0.316895 3.40389 0.316895 5.01421C0.316895 6.94158 1.91052 7.90109 4.23838 8.46011C6.32428 8.96072 6.74146 9.69496 6.74146 10.4709C6.74146 11.0466 6.33263 11.9644 4.48869 11.9644C3.112 11.9644 2.40279 11.4721 2.12745 10.7713C2.0023 10.4459 1.71862 10.2123 1.37653 10.2123H1.14291C0.583889 10.2123 0.19174 10.7796 0.40033 11.2969C0.875915 12.4567 1.98561 13.1409 3.23715 13.4079V13.9669C3.23715 14.6594 3.79617 15.2184 4.48869 15.2184C5.18121 15.2184 5.74023 14.6594 5.74023 13.9669V13.4245C7.36723 13.1158 8.66049 12.173 8.66049 10.4626C8.66049 8.09299 6.633 7.28366 4.739 6.79139Z" fill="#333333"/>
</svg>
