<svg width="10" height="21" viewBox="0 0 10 21" fill="none" xmlns="http://www.w3.org/2000/svg">
<path fill-rule="evenodd" clip-rule="evenodd" d="M9.28537 2.86789C9.28537 1.46867 8.20279 0.332275 6.86364 0.332275H2.95884C1.62219 0.332275 0.537109 1.46867 0.537109 2.86789V7.29333L3.06647 10.3308L0.537109 13.3946V17.795C0.537109 19.1942 1.62094 20.3294 2.95884 20.3294H6.86364C8.20154 20.3294 9.28537 19.1942 9.28537 17.795V13.317L6.66465 10.3458L9.28537 7.37218V2.86789ZM8.03383 6.58997L5.53075 10.3308L8.03383 14.0992V17.8538C8.03383 18.1858 7.90197 18.5041 7.66726 18.7388C7.43255 18.9735 7.11422 19.1054 6.78229 19.1054H3.02767C2.69574 19.1054 2.37741 18.9735 2.1427 18.7388C1.90799 18.5041 1.77613 18.1858 1.77613 17.8538V14.0992L4.27921 10.3308L1.77613 6.615V2.83535C1.77613 2.50342 1.90799 2.18509 2.1427 1.95038C2.37741 1.71567 2.69574 1.58381 3.02767 1.58381H6.78229C7.11422 1.58381 7.43255 1.71567 7.66726 1.95038C7.90197 2.18509 8.03383 2.50342 8.03383 2.83535V6.58997Z" fill="#333333"/>
<path fill-rule="evenodd" clip-rule="evenodd" d="M6.78245 17.8534H3.02783V15.3503L4.90514 12.8735L6.78245 15.3503V17.8534Z" fill="#333333"/>
<path fill-rule="evenodd" clip-rule="evenodd" d="M6.78245 5.33789L4.93142 7.81469L3.02783 5.33789H6.78245Z" fill="#333333"/>
</svg>
