<svg width="20" height="23" viewBox="0 0 20 23" fill="none" xmlns="http://www.w3.org/2000/svg">
<path d="M17.2445 8.41674L17.2441 8.41688C16.2047 8.78661 15.0867 8.01859 15.0867 6.89189V1.5778H11.133C10.8623 1.5778 10.7162 1.90074 10.8977 2.10435C11.3221 2.57816 11.5554 3.1907 11.5554 3.8268C11.5554 5.25194 10.3965 6.4108 8.97135 6.4108C7.54622 6.4108 6.38735 5.25194 6.38735 3.8268C6.38735 3.19055 6.62067 2.57788 7.04527 2.10402L7.52996 2.53832M17.2445 8.41674L18.9531 9.62606C18.9525 10.4622 18.0214 11.1129 17.2444 10.8361L17.2444 10.8361L17.2392 10.8343C16.2378 10.4871 15.0867 11.2296 15.0867 12.361V17.675H12.8378H12.187V18.3258C12.187 20.0987 10.7443 21.5414 8.97135 21.5414C7.1984 21.5414 5.75576 20.0987 5.75576 18.3258V17.675H5.10496H3.10732C1.86773 17.675 0.85832 16.6656 0.85832 15.426V3.8268C0.85832 2.58721 1.86773 1.5778 3.10732 1.5778H6.80972C7.08059 1.5778 7.22662 1.90109 7.04469 2.10467L7.52996 2.53832M17.2445 8.41674C18.0235 8.13912 18.9528 8.7889 18.9531 9.62597L17.2445 8.41674ZM7.52996 2.53832C8.08589 1.91622 7.64402 0.927002 6.80972 0.927002H3.10732C1.5083 0.927002 0.20752 2.22779 0.20752 3.8268V15.426C0.20752 17.025 1.5083 18.3258 3.10732 18.3258H4.45416M7.52996 2.53832C7.21279 2.89229 7.03816 3.35014 7.03816 3.8268C7.03816 4.89251 7.90565 5.76 8.97135 5.76C10.0371 5.76 10.9046 4.89251 10.9046 3.8268C10.9046 3.35014 10.7299 2.89229 10.4127 2.53832C9.85682 1.91622 10.2987 0.927002 11.133 0.927002H15.0867L4.45416 18.3258M4.45416 18.3258H5.10496H4.45416Z" stroke="black" stroke-width="1.3016"/>
</svg>
