<svg width="91" height="91" viewBox="0 0 91 91" fill="none" xmlns="http://www.w3.org/2000/svg">
<g clip-path="url(#clip0)">
<path d="M50.0701 79.0851L56.6248 81.1835L55.2075 74.5024L50.0701 79.0851Z" fill="#3E84D7"/>
<path d="M46.6293 45.6214C46.6293 46.4495 45.9571 47.1217 45.129 47.1217C44.3009 47.1217 43.6287 46.4495 43.6287 45.6214C43.6287 44.7933 44.3009 44.1211 45.129 44.1211C45.9571 44.1211 46.6293 44.7933 46.6293 45.6214Z" fill="#3E84D7"/>
<path d="M45.1294 0.621338C20.2763 0.621338 0.129395 20.7682 0.129395 45.6213C0.129395 70.4745 20.2763 90.6213 45.1294 90.6213C69.9825 90.6213 90.1294 70.4745 90.1294 45.6213C90.1294 20.7682 69.9825 0.621338 45.1294 0.621338ZM59.1782 78.7623L60.0976 83.0895C60.2679 83.9005 59.7481 84.6956 58.9378 84.8659C58.6858 84.9181 58.4249 84.9057 58.1791 84.8281L46.664 81.1401C45.8744 80.8888 45.4377 80.0456 45.689 79.256C45.77 78.9992 45.9197 78.7691 46.1209 78.5899L55.1462 70.539C55.7648 69.9876 56.7131 70.0419 57.2645 70.6599C57.4382 70.8549 57.5584 71.0925 57.6126 71.3479L58.5485 75.7561C75.1749 68.3328 82.6353 48.8355 75.212 32.2091C67.788 15.582 48.2914 8.12157 31.6643 15.5456C15.0378 22.9696 7.57744 42.4662 15.0014 59.0933C18.6208 67.1999 25.3574 73.5046 33.6858 76.5801L42.3485 49.1301C40.6923 47.8481 40.1656 45.5788 41.0871 43.698L29.0763 31.6866C28.5009 31.0905 28.5174 30.1409 29.1134 29.5655C29.6943 29.0038 30.6165 29.0038 31.1974 29.5655L43.2006 41.5715C43.8014 41.2783 44.4606 41.1245 45.1294 41.1211C47.6144 41.1087 49.64 43.113 49.6523 45.598C49.6654 48.0836 47.6611 50.1086 45.1761 50.1216L36.0842 78.9319C35.973 79.2834 35.7361 79.5821 35.4182 79.7703C35.1744 79.9138 34.8963 79.99 34.6127 79.9907C34.4637 79.9907 34.3154 79.968 34.1733 79.9234C15.2191 73.8837 4.75052 53.6221 10.7903 34.668C16.83 15.7138 37.0915 5.24521 56.045 11.2849C74.9992 17.3247 85.4684 37.5862 79.4287 56.5404C76.2406 66.5455 68.8448 74.6609 59.1782 78.7623ZM69.1297 45.6213C69.1297 44.7932 69.8013 44.121 70.6293 44.121H73.6293C74.4581 44.121 75.1296 44.7932 75.1296 45.6213C75.1296 46.4494 74.4581 47.1217 73.6293 47.1217H70.6293C69.8013 47.1217 69.1297 46.4494 69.1297 45.6213ZM46.6297 17.1214V20.1214C46.6297 20.9495 45.9575 21.621 45.1294 21.621C44.3013 21.621 43.6291 20.9495 43.6291 20.1214V17.1214C43.6291 16.2926 44.3013 15.6211 45.1294 15.6211C45.9575 15.6211 46.6297 16.2926 46.6297 17.1214ZM21.1291 45.6213C21.1291 46.4494 20.4575 47.1217 19.6294 47.1217H16.6295C15.8007 47.1217 15.1292 46.4494 15.1292 45.6213C15.1292 44.7932 15.8007 44.121 16.6295 44.121H19.6294C20.4575 44.121 21.1291 44.7932 21.1291 45.6213Z" fill="#3E84D7"/>
</g>
<defs>
<clipPath id="clip0">
<rect width="90" height="90" fill="white" transform="translate(0.129395 0.621338)"/>
</clipPath>
</defs>
</svg>
