<svg width="70" height="71" viewBox="0 0 70 71" fill="none" xmlns="http://www.w3.org/2000/svg">
<path d="M13.0919 47.543H13.0808C12.5145 47.543 12.061 48.0061 12.061 48.5774C12.061 49.1487 12.5256 49.6119 13.0919 49.6119C13.6582 49.6119 14.1173 49.1487 14.1173 48.5774C14.1173 48.0061 13.6582 47.543 13.0919 47.543Z" fill="black"/>
<path d="M21.8595 47.543H21.8485C21.2822 47.543 20.8286 48.0061 20.8286 48.5774C20.8286 49.1487 21.2932 49.6119 21.8595 49.6119C22.4258 49.6119 22.8849 49.1487 22.8849 48.5774C22.8849 48.0061 22.4258 47.543 21.8595 47.543Z" fill="black"/>
<path d="M58.0262 47.543H58.0153C57.449 47.543 56.9954 48.0061 56.9954 48.5774C56.9954 49.1487 57.4599 49.6119 58.0262 49.6119C58.5925 49.6119 59.0516 49.1487 59.0516 48.5774C59.0516 48.0061 58.5925 47.543 58.0262 47.543Z" fill="black"/>
<path d="M69.0577 35.0368L67.6791 33.646L64.9016 25.2397C65.316 25.1069 65.6164 24.7159 65.6164 24.254C65.6164 23.6827 65.1573 23.2195 64.591 23.2195H54.6568V18.726C54.6568 17.5459 53.7053 16.5859 52.5355 16.5859H2.12133C0.951564 16.5859 0 17.5461 0 18.726V43.0504C0 44.2305 0.951564 45.1905 2.12133 45.1905H3.28782V47.4724C3.28782 48.6525 4.23938 49.6125 5.40915 49.6125H7.77043C8.25113 52.1283 10.4489 54.035 13.0809 54.035C14.8831 54.035 16.4812 53.1404 17.4646 51.7691C18.4482 53.1404 20.0463 54.035 21.8485 54.035C24.4805 54.035 26.6784 52.1283 27.159 49.6125H52.7046C53.1853 52.1283 55.3831 54.035 58.0151 54.035C60.9977 54.035 63.4242 51.5869 63.4242 48.578C63.4242 48.5543 63.4227 48.531 63.4225 48.5074H67.8787C69.0484 48.5074 70 47.5474 70 46.3673V37.3318C70.0001 36.4649 69.6655 35.6499 69.0577 35.0368ZM7.77043 47.5437H5.40915C5.37019 47.5437 5.3386 47.5118 5.3386 47.4725V45.1906H8.84476C8.31429 45.8645 7.93791 46.6667 7.77043 47.5437ZM13.0809 51.9664C11.229 51.9664 9.7225 50.4464 9.7225 48.5783C9.7225 46.7172 11.2178 45.2022 13.0599 45.1906H13.1021C14.9442 45.202 16.4395 46.7171 16.4395 48.5783C16.4394 50.4464 14.9327 51.9664 13.0809 51.9664ZM21.8487 51.9664C19.9968 51.9664 18.4902 50.4464 18.4902 48.5783C18.4902 46.7172 19.9854 45.2022 21.8276 45.1906H21.8697C23.7119 45.202 25.2072 46.7171 25.2072 48.5783C25.207 50.4464 23.7005 51.9664 21.8487 51.9664ZM52.7048 47.5437H27.1591C26.9916 46.6667 26.6152 45.8644 26.0846 45.1905H45.9596C46.5259 45.1905 46.985 44.7273 46.985 44.156C46.985 43.5847 46.5259 43.1215 45.9596 43.1215H2.12133C2.08237 43.1215 2.05079 43.0897 2.05079 43.0504V18.726C2.05079 18.6867 2.08237 18.6549 2.12133 18.6549H52.5354C52.5743 18.6549 52.6059 18.6867 52.6059 18.726V43.1217H50.3439C49.7776 43.1217 49.3185 43.5848 49.3185 44.1561C49.3185 44.7274 49.7776 45.1906 50.3439 45.1906H53.7791C53.2485 45.8645 52.8723 46.6667 52.7048 47.5437ZM65.7255 34.2759H59.1112C59.0722 34.2759 59.0406 34.244 59.0406 34.2047V29.7108H64.2172L65.7255 34.2759ZM58.0152 51.9664C56.1633 51.9664 54.6568 50.4464 54.6568 48.5783C54.6568 46.7172 56.1521 45.2022 57.9943 45.1906H58.0153C58.0177 45.1906 58.02 45.1903 58.0225 45.1902C59.871 45.194 61.3739 46.7124 61.3739 48.5781C61.3736 50.4464 59.8671 51.9664 58.0152 51.9664ZM67.9493 46.3676C67.9493 46.4069 67.9178 46.4387 67.8788 46.4387H62.9908C62.1644 44.4902 60.2455 43.1213 58.0152 43.1213C58.0081 43.1213 58.0013 43.1218 57.9942 43.1218H54.6568V25.36V25.3595C54.6568 25.3201 54.6884 25.2883 54.7274 25.2883H62.7559L63.5336 27.6419H58.0152C57.4489 27.6419 56.9898 28.1051 56.9898 28.6764V34.2047C56.9898 35.3848 57.9414 36.3448 59.1112 36.3448H67.454L67.6077 36.4998C67.8279 36.7222 67.9493 37.0176 67.9493 37.332V39.8048H66.7829C66.2166 39.8048 65.7575 40.2679 65.7575 40.8392C65.7575 41.4105 66.2166 41.8737 66.7829 41.8737H67.9493V46.3676Z" fill="black"/>
<path d="M49.2474 38.6992H5.40918C4.84289 38.6992 4.38379 39.1624 4.38379 39.7337C4.38379 40.305 4.84289 40.7682 5.40918 40.7682H49.2474C49.8137 40.7682 50.2728 40.305 50.2728 39.7337C50.2728 39.1624 49.8137 38.6992 49.2474 38.6992Z" fill="black"/>
</svg>
