<svg width="70" height="62" viewBox="0 0 70 62" fill="none" xmlns="http://www.w3.org/2000/svg">
<path d="M44.8438 0.900391H29.5312C28.9264 0.900391 28.4375 1.39039 28.4375 1.99414C28.4375 2.59789 28.9264 3.08789 29.5312 3.08789H44.8438C45.4486 3.08789 45.9375 2.59789 45.9375 1.99414C45.9375 1.39039 45.4486 0.900391 44.8438 0.900391Z" fill="black"/>
<path d="M39.375 0.900391C38.7702 0.900391 38.2812 1.39039 38.2812 1.99414V7.46289C38.2812 8.06664 38.7702 8.55664 39.375 8.55664C39.9798 8.55664 40.4688 8.06664 40.4688 7.46289V1.99414C40.4688 1.39039 39.9798 0.900391 39.375 0.900391Z" fill="black"/>
<path d="M39.375 6.36914H35C34.3952 6.36914 33.9062 6.85914 33.9062 7.46289C33.9062 8.06664 34.3952 8.55664 35 8.55664H39.375C39.9798 8.55664 40.4688 8.06664 40.4688 7.46289C40.4688 6.85914 39.9798 6.36914 39.375 6.36914Z" fill="black"/>
<path d="M35 0.900391C34.3952 0.900391 33.9062 1.39039 33.9062 1.99414V7.46289C33.9062 8.06664 34.3952 8.55664 35 8.55664C35.6048 8.55664 36.0938 8.06664 36.0938 7.46289V1.99414C36.0938 1.39039 35.6048 0.900391 35 0.900391Z" fill="black"/>
<path d="M29.5312 22.7754H16.4062C15.8014 22.7754 15.3125 23.2654 15.3125 23.8691C15.3125 24.4729 15.8014 24.9629 16.4062 24.9629H29.5312C30.1361 24.9629 30.625 24.4729 30.625 23.8691C30.625 23.2654 30.1361 22.7754 29.5312 22.7754Z" fill="black"/>
<path d="M44.8438 20.5879C44.2389 20.5879 43.75 21.0779 43.75 21.6816V40.2754C43.75 40.8802 44.2389 41.3691 44.8438 41.3691C45.4486 41.3691 45.9375 40.8802 45.9375 40.2754V21.6816C45.9375 21.0779 45.4486 20.5879 44.8438 20.5879Z" fill="black"/>
<path d="M68.9062 47.9316H65.648C65.0431 47.9316 64.5542 48.4205 64.5542 49.0254C64.5542 49.6302 65.0431 50.1191 65.648 50.1191H68.9062C69.5111 50.1191 70 49.6302 70 49.0254C70 48.4205 69.5111 47.9316 68.9062 47.9316Z" fill="black"/>
<path d="M68.9062 47.9316C68.3014 47.9316 67.8125 48.4205 67.8125 49.0254V53.4004C67.8125 54.0052 68.3014 54.4941 68.9062 54.4941C69.5111 54.4941 70 54.0052 70 53.4004V49.0254C70 48.4205 69.5111 47.9316 68.9062 47.9316Z" fill="black"/>
<path d="M10.9375 52.3066C10.9364 52.3066 10.9353 52.3066 10.9342 52.3066L3.27798 52.3296C2.67313 52.3318 2.18532 52.8218 2.18751 53.4266C2.18969 54.0304 2.6786 54.5171 3.28126 54.5171C3.28235 54.5171 3.28344 54.5171 3.28454 54.5171L10.9408 54.4942C11.5456 54.492 12.0334 54.002 12.0313 53.3971C12.0291 52.7934 11.5402 52.3066 10.9375 52.3066Z" fill="black"/>
<path d="M67.8125 42.4629H66.7188C66.1139 42.4629 65.625 42.9518 65.625 43.5566C65.625 44.1615 66.1139 44.6504 66.7188 44.6504H67.8125C68.4173 44.6504 68.9062 44.1615 68.9062 43.5566C68.9062 42.9518 68.4173 42.4629 67.8125 42.4629Z" fill="black"/>
<path d="M67.8125 34.8066C67.2077 34.8066 66.7188 35.2955 66.7188 35.9004V49.0254C66.7188 49.6302 67.2077 50.1191 67.8125 50.1191C68.4173 50.1191 68.9062 49.6302 68.9062 49.0254V35.9004C68.9062 35.2955 68.4173 34.8066 67.8125 34.8066Z" fill="black"/>
<path d="M61.25 20.5879H44.8438C44.2389 20.5879 43.75 21.0779 43.75 21.6816C43.75 22.2854 44.2389 22.7754 44.8438 22.7754H61.25C61.8548 22.7754 62.3438 22.2854 62.3438 21.6816C62.3438 21.0779 61.8548 20.5879 61.25 20.5879Z" fill="black"/>
<path d="M68.8058 35.4421L62.2433 21.2234C61.9906 20.6754 61.3431 20.4359 60.7919 20.6885C60.2428 20.9412 60.0044 21.592 60.2571 22.1399L66.8195 36.3587C67.0044 36.759 67.4003 36.9941 67.8138 36.9941C67.9669 36.9941 68.1222 36.9624 68.271 36.8935C68.82 36.6409 69.0585 35.9901 68.8058 35.4421Z" fill="black"/>
<path d="M3.28125 47.9316C2.67641 47.9316 2.1875 48.4205 2.1875 49.0254V53.4693C2.1875 54.0741 2.67641 54.563 3.28125 54.563C3.88609 54.563 4.375 54.073 4.375 53.4693V49.0254C4.375 48.4205 3.88609 47.9316 3.28125 47.9316Z" fill="black"/>
<path d="M1.09375 33.7129C0.488906 33.7129 0 34.2018 0 34.8066V49.0254C0 49.6302 0.488906 50.1191 1.09375 50.1191C1.69859 50.1191 2.1875 49.6302 2.1875 49.0254V34.8066C2.1875 34.2018 1.69859 33.7129 1.09375 33.7129Z" fill="black"/>
<path d="M44.8438 33.7129H1.09375C0.488906 33.7129 0 34.2018 0 34.8066C0 35.4115 0.488906 35.9004 1.09375 35.9004H44.8438C45.4486 35.9004 45.9375 35.4115 45.9375 34.8066C45.9375 34.2018 45.4486 33.7129 44.8438 33.7129Z" fill="black"/>
<path d="M6.5625 47.9316H1.09375C0.488906 47.9316 0 48.4205 0 49.0254C0 49.6302 0.488906 50.1191 1.09375 50.1191H6.5625C7.16734 50.1191 7.65625 49.6302 7.65625 49.0254C7.65625 48.4205 7.16734 47.9316 6.5625 47.9316Z" fill="black"/>
<path d="M17.5 45.7441C13.2792 45.7441 9.84375 49.1796 9.84375 53.4004C9.84375 57.6212 13.2792 61.0566 17.5 61.0566C21.7208 61.0566 25.1562 57.6212 25.1562 53.4004C25.1562 49.1796 21.7208 45.7441 17.5 45.7441ZM17.5 58.8691C14.4845 58.8691 12.0312 56.4159 12.0312 53.4004C12.0312 50.3849 14.4845 47.9316 17.5 47.9316C20.5155 47.9316 22.9688 50.3849 22.9688 53.4004C22.9688 56.4159 20.5155 58.8691 17.5 58.8691Z" fill="black"/>
<path d="M17.5 50.1191C15.6909 50.1191 14.2188 51.5913 14.2188 53.4004C14.2188 55.2095 15.6909 56.6816 17.5 56.6816C19.3091 56.6816 20.7812 55.2095 20.7812 53.4004C20.7812 51.5913 19.3091 50.1191 17.5 50.1191ZM17.5 54.4941C16.8963 54.4941 16.4062 54.0041 16.4062 53.4004C16.4062 52.7966 16.8963 52.3066 17.5 52.3066C18.1037 52.3066 18.5938 52.7966 18.5938 53.4004C18.5938 54.0041 18.1037 54.4941 17.5 54.4941Z" fill="black"/>
<path d="M53.5938 50.1191C51.7847 50.1191 50.3125 51.5913 50.3125 53.4004C50.3125 55.2095 51.7847 56.6816 53.5938 56.6816C55.4028 56.6816 56.875 55.2095 56.875 53.4004C56.875 51.5913 55.4028 50.1191 53.5938 50.1191ZM53.5938 54.4941C52.99 54.4941 52.5 54.0041 52.5 53.4004C52.5 52.7966 52.99 52.3066 53.5938 52.3066C54.1975 52.3066 54.6875 52.7966 54.6875 53.4004C54.6875 54.0041 54.1975 54.4941 53.5938 54.4941Z" fill="black"/>
<path d="M53.5938 45.7441C49.373 45.7441 45.9375 49.1796 45.9375 53.4004C45.9375 57.6212 49.373 61.0566 53.5938 61.0566C57.8145 61.0566 61.25 57.6212 61.25 53.4004C61.25 49.1796 57.8145 45.7441 53.5938 45.7441ZM53.5938 58.8691C50.5783 58.8691 48.125 56.4159 48.125 53.4004C48.125 50.3849 50.5783 47.9316 53.5938 47.9316C56.6092 47.9316 59.0625 50.3849 59.0625 53.4004C59.0625 56.4159 56.6092 58.8691 53.5938 58.8691Z" fill="black"/>
<path d="M47.0586 52.3066H24.0625C23.4577 52.3066 22.9688 52.7955 22.9688 53.4004C22.9688 54.0052 23.4577 54.4941 24.0625 54.4941H47.0586C47.6634 54.4941 48.1523 54.0052 48.1523 53.4004C48.1523 52.7955 47.6634 52.3066 47.0586 52.3066Z" fill="black"/>
<path d="M68.9062 52.3066H60.1562C59.5514 52.3066 59.0625 52.7955 59.0625 53.4004C59.0625 54.0052 59.5514 54.4941 60.1562 54.4941H68.9062C69.5111 54.4941 70 54.0052 70 53.4004C70 52.7955 69.5111 52.3066 68.9062 52.3066Z" fill="black"/>
<path d="M67.8125 34.8066H54.6875C54.0827 34.8066 53.5938 35.2955 53.5938 35.9004C53.5938 36.5052 54.0827 36.9941 54.6875 36.9941H67.8125C68.4173 36.9941 68.9062 36.5052 68.9062 35.9004C68.9062 35.2955 68.4173 34.8066 67.8125 34.8066Z" fill="black"/>
<path d="M54.6875 34.8066C52.8784 34.8066 51.4062 33.3345 51.4062 31.5254C51.4062 30.9216 50.9173 30.4316 50.3125 30.4316C49.7077 30.4316 49.2188 30.9216 49.2188 31.5254C49.2188 34.5409 51.672 36.9941 54.6875 36.9941C55.2923 36.9941 55.7812 36.5052 55.7812 35.9004C55.7812 35.2955 55.2923 34.8066 54.6875 34.8066Z" fill="black"/>
<path d="M50.3125 20.5879C49.7077 20.5879 49.2188 21.0779 49.2188 21.6816V31.5254C49.2188 32.1302 49.7077 32.6191 50.3125 32.6191C50.9173 32.6191 51.4062 32.1302 51.4062 31.5254V21.6816C51.4062 21.0779 50.9173 20.5879 50.3125 20.5879Z" fill="black"/>
<path d="M44.8438 0.900391C44.2389 0.900391 43.75 1.39039 43.75 1.99414V34.8066C43.75 35.4115 44.2389 35.9004 44.8438 35.9004C45.4486 35.9004 45.9375 35.4115 45.9375 34.8066V1.99414C45.9375 1.39039 45.4486 0.900391 44.8438 0.900391Z" fill="black"/>
<path d="M29.5312 0.900391C28.9264 0.900391 28.4375 1.39039 28.4375 1.99414V34.8066C28.4375 35.4115 28.9264 35.9004 29.5312 35.9004C30.1361 35.9004 30.625 35.4115 30.625 34.8066V1.99414C30.625 1.39039 30.1361 0.900391 29.5312 0.900391Z" fill="black"/>
<path d="M16.4062 9.65039C15.8014 9.65039 15.3125 10.1404 15.3125 10.7441V34.8066C15.3125 35.4115 15.8014 35.9004 16.4062 35.9004C17.0111 35.9004 17.5 35.4115 17.5 34.8066V10.7441C17.5 10.1404 17.0111 9.65039 16.4062 9.65039Z" fill="black"/>
<path d="M22.9688 22.7754C22.3639 22.7754 21.875 23.2654 21.875 23.8691V27.1504C21.875 27.7541 22.3639 28.2441 22.9688 28.2441C23.5736 28.2441 24.0625 27.7541 24.0625 27.1504V23.8691C24.0625 23.2654 23.5736 22.7754 22.9688 22.7754Z" fill="black"/>
<path d="M29.5312 9.65039H16.4062C15.8014 9.65039 15.3125 10.1404 15.3125 10.7441C15.3125 11.3479 15.8014 11.8379 16.4062 11.8379H29.5312C30.1361 11.8379 30.625 11.3479 30.625 10.7441C30.625 10.1404 30.1361 9.65039 29.5312 9.65039Z" fill="black"/>
<path d="M22.9688 9.65039C22.3639 9.65039 21.875 10.1404 21.875 10.7441V12.9316C21.875 13.5354 22.3639 14.0254 22.9688 14.0254C23.5736 14.0254 24.0625 13.5354 24.0625 12.9316V10.7441C24.0625 10.1404 23.5736 9.65039 22.9688 9.65039Z" fill="black"/>
<path d="M3.28125 17.3066C2.67641 17.3066 2.1875 17.7966 2.1875 18.4004V34.8066C2.1875 35.4115 2.67641 35.9004 3.28125 35.9004C3.88609 35.9004 4.375 35.4115 4.375 34.8066V18.4004C4.375 17.7966 3.88609 17.3066 3.28125 17.3066Z" fill="black"/>
<path d="M16.4062 17.3066H3.28125C2.67641 17.3066 2.1875 17.7966 2.1875 18.4004C2.1875 19.0041 2.67641 19.4941 3.28125 19.4941H16.4062C17.0111 19.4941 17.5 19.0041 17.5 18.4004C17.5 17.7966 17.0111 17.3066 16.4062 17.3066Z" fill="black"/>
<path d="M7.65625 17.3066C7.05141 17.3066 6.5625 17.7966 6.5625 18.4004V21.6816C6.5625 22.2854 7.05141 22.7754 7.65625 22.7754C8.26109 22.7754 8.75 22.2854 8.75 21.6816V18.4004C8.75 17.7966 8.26109 17.3066 7.65625 17.3066Z" fill="black"/>
<path d="M12.0312 20.5879H7.65625C7.05141 20.5879 6.5625 21.0779 6.5625 21.6816C6.5625 22.2854 7.05141 22.7754 7.65625 22.7754H12.0312C12.6361 22.7754 13.125 22.2854 13.125 21.6816C13.125 21.0779 12.6361 20.5879 12.0312 20.5879Z" fill="black"/>
<path d="M12.0312 17.3066C11.4264 17.3066 10.9375 17.7966 10.9375 18.4004V21.6816C10.9375 22.2854 11.4264 22.7754 12.0312 22.7754C12.6361 22.7754 13.125 22.2854 13.125 21.6816V18.4004C13.125 17.7966 12.6361 17.3066 12.0312 17.3066Z" fill="black"/>
</svg>
