<svg width="20" height="20" viewBox="0 0 20 20" fill="none" xmlns="http://www.w3.org/2000/svg">
<path d="M10.5539 18.7263C8.97186 18.7263 7.48551 18.3435 6.09485 17.578L0.143066 19.9511L2.51612 13.9993C1.75062 12.6086 1.36787 11.1223 1.36787 9.54025C1.36787 8.28993 1.61028 7.10021 2.0951 5.97109C2.57992 4.84198 3.23378 3.86596 4.0567 3.04305C4.87961 2.22013 5.85563 1.56626 6.98475 1.08144C8.11386 0.596627 9.30358 0.354218 10.5539 0.354218C11.8042 0.354218 12.9939 0.596627 14.1231 1.08144C15.2522 1.56626 16.2282 2.22013 17.0511 3.04305C17.874 3.86596 18.5279 4.84198 19.0127 5.97109C19.4975 7.10021 19.7399 8.28993 19.7399 9.54025C19.7399 10.7906 19.4975 11.9803 19.0127 13.1094C18.5279 14.2385 17.874 15.2145 17.0511 16.0375C16.2282 16.8604 15.2522 17.5142 14.1231 17.9991C12.9939 18.4839 11.8042 18.7263 10.5539 18.7263ZM13.6159 11.3775H12.3911L11.7022 11.9899C11.128 11.8368 10.4231 11.3424 9.58745 10.5067C8.75178 9.67102 8.25739 8.96612 8.10429 8.39199L8.7167 7.70304V6.47824C8.7167 6.26135 8.64015 6.04445 8.48704 5.82756C8.33394 5.61067 8.1649 5.45438 7.9799 5.35869C7.7949 5.263 7.66413 5.25343 7.58758 5.32998L6.68811 6.22945C6.19054 6.72703 6.11718 7.5021 6.46803 8.55466C6.81889 9.60723 7.4887 10.6279 8.47748 11.6167C9.46625 12.6054 10.4869 13.2753 11.5395 13.6261C12.5921 13.977 13.3671 13.9036 13.8647 13.406L14.7642 12.5066C14.8407 12.43 14.8311 12.2992 14.7355 12.1143C14.6398 11.9293 14.4835 11.7602 14.2666 11.6071C14.0497 11.454 13.8328 11.3775 13.6159 11.3775Z" fill="#3E84D7"/>
</svg>
