<svg width="24" height="15" viewBox="0 0 24 15" fill="none" xmlns="http://www.w3.org/2000/svg">
<path d="M22.9334 1.25979C23.0943 0.71215 22.9334 0.310547 22.1727 0.310547H19.6524C19.0112 0.310547 18.7181 0.657975 18.5573 1.03956C18.5573 1.03956 17.2759 4.24178 15.4601 6.3181C14.874 6.92227 14.6063 7.11307 14.2868 7.11307C14.1271 7.11307 13.8949 6.92228 13.8949 6.37463V1.25979C13.8949 0.602622 13.7099 0.310547 13.1755 0.310547H9.21535C8.81542 0.310547 8.57409 0.614399 8.57409 0.904119C8.57409 1.52596 9.48196 1.66964 9.57505 3.42209V7.22377C9.57505 8.05642 9.4291 8.20835 9.10732 8.20835C8.25346 8.20835 6.17569 4.99435 4.94259 1.31514C4.70241 0.600267 4.45993 0.311725 3.81637 0.311725H1.29731C0.576756 0.311725 0.433105 0.659153 0.433105 1.04073C0.433105 1.72617 1.28697 5.11801 4.41051 9.60395C6.49287 12.6672 9.4245 14.3278 12.0953 14.3278C13.6961 14.3278 13.8938 13.9592 13.8938 13.3232V11.0078C13.8938 10.2705 14.0466 10.1221 14.5534 10.1221C14.9258 10.1221 15.567 10.3153 17.0621 11.791C18.7699 13.5411 19.0526 14.3266 20.0121 14.3266H22.5312C23.2506 14.3266 23.6103 13.958 23.4035 13.2301C23.1771 12.5059 22.3611 11.4518 21.2786 10.2046C20.6902 9.49324 19.811 8.72772 19.5433 8.34496C19.1698 7.8515 19.2778 7.63362 19.5433 7.19551C19.5444 7.19668 22.614 2.7661 22.9334 1.25979Z" fill="white"/>
</svg>
