<svg width="70" height="70" viewBox="0 0 70 70" fill="none" xmlns="http://www.w3.org/2000/svg">
<path d="M68.7597 29.9878C68.034 28.892 66.9338 28.1368 65.6547 27.8505C66.4798 26.2724 66.4462 24.3033 65.3952 22.7166C64.6475 21.5871 63.5196 20.8576 62.2918 20.5815C62.5107 20.1638 62.6725 19.7131 62.7692 19.2378C63.0373 17.916 62.7756 16.5691 62.0306 15.4449C61.3048 14.3485 60.2047 13.5933 58.9256 13.3076C59.7507 11.7295 59.7171 9.76039 58.666 8.17317C57.1296 5.85269 53.9904 5.21449 51.6693 6.75151L46.6439 10.0798C43.965 8.72112 41.1158 7.75714 38.1587 7.20813C37.2241 5.78914 36.1373 4.47002 34.9207 3.29082L32.8417 1.27581C31.3191 -0.200322 28.9313 -0.421956 27.1636 0.749233C25.0722 2.13405 24.4975 4.96242 25.8823 7.05379C25.9368 7.13657 25.9902 7.21988 26.0431 7.30319C19.228 8.68213 13.0169 12.2988 8.41971 17.5982C3.43108 23.3495 0.68335 30.7152 0.68335 38.3384C0.68335 39.7996 0.783219 41.2634 0.98082 42.6883C2.50342 53.7652 9.88197 63.3109 20.2363 67.601C24.0762 69.1925 28.1505 70 32.3444 70C38.9865 70 45.3445 67.9658 50.7315 64.1179C56.0016 60.3528 59.9446 55.1569 62.1347 49.0922C62.3393 48.5271 62.0461 47.9028 61.4811 47.6988C60.9155 47.4948 60.2917 47.7875 60.0877 48.353C58.0481 54.0007 54.3754 58.8393 49.4658 62.3464C44.4505 65.9294 38.5299 67.8232 32.3444 67.8232C29.1465 67.8232 26.0239 67.3185 23.0353 66.323L31.891 60.4585C31.8916 60.458 31.8921 60.458 31.8926 60.4575C31.8932 60.4575 31.8932 60.4569 31.8937 60.4564L39.2536 55.5826H39.2541C39.9147 55.1446 40.366 54.476 40.5241 53.699C40.6822 52.9219 40.5284 52.1294 40.0904 51.4687L39.9932 51.3213L41.4229 50.3744C42.443 49.6989 43.6697 49.434 44.8777 49.6278C46.6268 49.9087 48.403 49.5242 49.8792 48.5464L61.7374 40.6936C61.6562 41.7222 61.5227 42.7449 61.3363 43.7505C61.2263 44.3417 61.6167 44.91 62.2079 45.0194C62.2747 45.0323 62.342 45.0381 62.4076 45.0381C62.9219 45.0381 63.3791 44.6718 63.4763 44.1479C63.778 42.5249 63.9516 40.8623 63.9965 39.1977L67.3381 36.9845C68.4623 36.2401 69.2297 35.102 69.4978 33.7807C69.7664 32.4589 69.5042 31.112 68.7597 29.9878ZM44.5306 11.479L41.205 13.6814L40.5503 11.9175C40.2768 11.1815 39.9633 10.46 39.6162 9.75399C41.3033 10.1818 42.946 10.7585 44.5306 11.479ZM10.0641 19.0247C14.4823 13.9314 20.5006 10.5075 27.0845 9.32033C28.1409 11.8795 28.394 14.7389 27.7628 17.4642L25.109 28.9288C24.6919 28.4834 24.1504 28.1763 23.5405 28.0524C22.7629 27.8938 21.9709 28.0481 21.3103 28.4861L13.7934 33.4635C13.7929 33.4635 13.7929 33.4635 13.7923 33.464C13.7923 33.464 13.7918 33.464 13.7918 33.4646L2.95043 40.6439C2.89115 39.8791 2.86017 39.1085 2.86017 38.3384C2.86017 31.2397 5.41884 24.3802 10.0641 19.0247ZM38.3911 53.2648C38.3489 53.472 38.2282 53.6509 38.0514 53.7678H38.0519L31.5877 58.0483L19.5901 40.1558C19.2552 39.6564 18.5791 39.5234 18.0798 39.8583C17.5809 40.1932 17.4474 40.8687 17.7823 41.3681L29.7724 59.2505L20.5444 65.3617C11.3747 61.3509 4.81269 52.8808 3.23508 43.0247L14.0893 35.8603L15.3384 37.7242C15.5489 38.0372 15.8928 38.2065 16.2437 38.2065C16.4519 38.2065 16.6629 38.1472 16.8488 38.0222C17.3481 37.6874 17.4816 37.0112 17.1468 36.5119L15.9061 34.6614L22.5124 30.3008C22.6881 30.1838 22.8991 30.1433 23.1063 30.1854C23.3135 30.2276 23.4924 30.3483 23.6094 30.5246L38.2757 52.6709C38.3921 52.8466 38.4332 53.0575 38.3911 53.2648ZM67.3648 33.3471C67.212 34.099 66.7757 34.7463 66.1359 35.1698L62.3158 37.6996C62.3147 37.7002 62.3137 37.7012 62.312 37.7018L48.677 46.7316C47.657 47.4072 46.4302 47.6726 45.2222 47.4782C43.4737 47.1979 41.6974 47.5818 40.2207 48.5597L38.7911 49.5066L26.779 31.3684L29.884 17.9555C30.6835 14.5002 30.2622 10.8606 28.739 7.68985C28.7251 7.65674 28.7102 7.6247 28.6931 7.59319C28.4004 6.99397 28.0682 6.41238 27.6971 5.85162C26.975 4.76108 27.2746 3.28654 28.3657 2.56396C29.2875 1.95353 30.5329 2.06889 31.3265 2.83847L33.4056 4.854C35.6545 7.03456 37.4196 9.73903 38.5091 12.6753L39.6413 15.7253C39.6434 15.7312 39.6456 15.736 39.6477 15.7413C39.6504 15.7483 39.6536 15.7557 39.6562 15.7627C39.6642 15.7814 39.6717 15.7985 39.6797 15.8129C39.7016 15.8588 39.7257 15.9042 39.7545 15.9475C40.0867 16.4489 40.7617 16.5862 41.2627 16.254L52.8715 8.56677C54.1917 7.69252 55.9771 8.05515 56.8513 9.37534C57.7256 10.6955 57.3629 12.4809 56.0427 13.3551L55.035 14.0227C55.035 14.0227 55.0344 14.0227 55.0339 14.0232L52.7861 15.5122C52.7829 15.5143 52.7807 15.5165 52.7775 15.5181C52.7647 15.5272 52.7524 15.5357 52.7423 15.5442C52.2776 15.8855 52.1575 16.5344 52.4795 17.0204C52.8112 17.5219 53.4867 17.6591 53.9882 17.3269L56.2377 15.8369C56.8769 15.4145 57.6422 15.2655 58.3937 15.4182C59.1451 15.5709 59.7929 16.0073 60.2159 16.6471C60.6394 17.2863 60.7889 18.0527 60.6362 18.8041C60.4834 19.5561 60.0471 20.2034 59.4073 20.6269L56.1506 22.7839C55.6491 23.1156 55.5119 23.7906 55.8441 24.2921C56.0534 24.6083 56.3995 24.7797 56.7525 24.7797C56.9587 24.7797 57.1675 24.721 57.3523 24.5987L57.8564 24.2649L59.6006 23.1097C60.9214 22.2355 62.7062 22.5981 63.5804 23.9183C64.4547 25.239 64.0921 27.0238 62.7719 27.8986L61.1451 28.9758C61.1366 28.9811 61.128 28.987 61.1195 28.9929L59.5152 30.0551C59.0137 30.3868 58.8765 31.0624 59.2086 31.5638C59.418 31.88 59.7641 32.0514 60.1171 32.0514C60.3232 32.0514 60.532 31.9927 60.7168 31.8704L61.221 31.5366C61.221 31.5366 61.221 31.5361 61.2215 31.5361L62.9657 30.3814C63.605 29.9579 64.3708 29.8084 65.1228 29.9617C65.8747 30.1139 66.522 30.5507 66.9455 31.19C67.3685 31.8293 67.5175 32.5956 67.3648 33.3471Z" fill="black"/>
</svg>
